<svg width="29" height="30" viewBox="0 0 29 30" fill="none" xmlns="http://www.w3.org/2000/svg">
<path opacity="0.92" fill-rule="evenodd" clip-rule="evenodd" d="M10.4547 0.478958C11.9604 0.379946 13.2623 0.840592 14.3601 1.86089C16.0828 0.36019 17.9854 0.0898119 20.0681 1.04976C22.0359 2.25218 22.847 4.00463 22.5015 6.30711C22.3117 7.16751 21.9312 7.92853 21.3599 8.5903C19.1252 10.8451 16.872 13.0783 14.6005 15.2897C14.3923 15.3388 14.192 15.3187 13.9996 15.2296C11.7866 13.0165 9.57343 10.8034 7.36036 8.5903C5.95457 6.82077 5.75431 4.91812 6.75952 2.88232C7.6201 1.51106 8.85182 0.709945 10.4547 0.478958ZM10.5749 1.50039C11.9909 1.43745 13.1526 1.94817 14.0597 3.03253C14.26 3.1527 14.4603 3.1527 14.6606 3.03253C16.1207 1.42394 17.8231 1.10349 19.7677 2.07118C21.3957 3.25009 21.9065 4.80226 21.2998 6.7277C21.1501 7.06759 20.9698 7.38802 20.7591 7.68904C18.6353 9.82286 16.5023 11.9458 14.3601 14.0579C12.218 11.9458 10.085 9.82286 7.9612 7.68904C6.92637 6.19325 6.88635 4.67113 7.84103 3.12265C8.53842 2.21363 9.44972 1.67288 10.5749 1.50039ZM13.8795 4.74492C14.1999 4.74492 14.5204 4.74492 14.8408 4.74492C14.8138 5.35208 14.8439 5.95291 14.9309 6.54744C14.976 6.58506 15.0261 6.6151 15.0812 6.63757C15.6416 6.66761 16.2024 6.67759 16.7635 6.66761C16.7635 6.98804 16.7635 7.30853 16.7635 7.62896C16.1564 7.60198 15.5555 7.63202 14.961 7.71908C14.9234 7.76414 14.8933 7.81425 14.8709 7.86929C14.8408 8.4297 14.8308 8.99052 14.8408 9.55164C14.5204 9.55164 14.1999 9.55164 13.8795 9.55164C13.9064 8.9445 13.8764 8.34366 13.7893 7.74912C13.7443 7.71151 13.6942 7.68147 13.6391 7.659C13.0787 7.62896 12.5179 7.61898 11.9568 7.62896C11.9568 7.30853 11.9568 6.98804 11.9568 6.66761C12.5639 6.69459 13.1648 6.66455 13.7593 6.57749C13.7969 6.53242 13.827 6.48231 13.8494 6.42728C13.8795 5.86687 13.8894 5.30607 13.8795 4.74492Z" fill="white"/>
<path opacity="0.988" fill-rule="evenodd" clip-rule="evenodd" d="M13.1584 3.78353C14.0055 3.7556 14.8466 3.78564 15.6819 3.87366C15.7195 3.91874 15.7496 3.96882 15.7721 4.02387C15.8021 4.5843 15.8121 5.14508 15.8021 5.70622C16.4092 5.67924 17.0101 5.70928 17.6046 5.79635C17.6422 5.84141 17.6723 5.89152 17.6947 5.94656C17.7348 6.74766 17.7348 7.54882 17.6947 8.34992C17.6723 8.40495 17.6422 8.45506 17.6046 8.50013C17.0101 8.58719 16.4092 8.61723 15.8021 8.59025C15.8291 9.1974 15.799 9.79824 15.712 10.3928C15.6669 10.4304 15.6168 10.4604 15.5618 10.4829C14.7607 10.523 13.9595 10.523 13.1584 10.4829C13.1034 10.4604 13.0533 10.4304 13.0082 10.3928C12.9211 9.79824 12.8911 9.1974 12.9181 8.59025C12.3109 8.61723 11.7101 8.58719 11.1155 8.50013C11.0779 8.45506 11.0479 8.40495 11.0254 8.34992C10.9853 7.54882 10.9853 6.74766 11.0254 5.94656C11.0479 5.89152 11.0779 5.84141 11.1155 5.79635C11.7101 5.70928 12.3109 5.67924 12.9181 5.70622C12.9081 5.14508 12.9181 4.5843 12.9481 4.02387C12.9896 3.9127 13.0596 3.83258 13.1584 3.78353ZM13.8794 4.74488C13.8894 5.30602 13.8794 5.86682 13.8494 6.42723C13.8269 6.48226 13.7969 6.53238 13.7592 6.57744C13.1647 6.6645 12.5639 6.69454 11.9567 6.66756C11.9567 6.98799 11.9567 7.30848 11.9567 7.62891C12.5178 7.61893 13.0787 7.62891 13.6391 7.65895C13.6941 7.68142 13.7442 7.71146 13.7893 7.74908C13.8763 8.34361 13.9064 8.94445 13.8794 9.5516C14.1998 9.5516 14.5203 9.5516 14.8408 9.5516C14.8308 8.99047 14.8408 8.42965 14.8708 7.86924C14.8933 7.81421 14.9233 7.7641 14.9609 7.71903C15.5555 7.63197 16.1563 7.60193 16.7634 7.62891C16.7634 7.30848 16.7634 6.98799 16.7634 6.66756C16.2023 6.67754 15.6415 6.66756 15.0811 6.63752C15.0261 6.61505 14.9759 6.58501 14.9309 6.5474C14.8438 5.95286 14.8138 5.35203 14.8408 4.74488C14.5203 4.74488 14.1998 4.74488 13.8794 4.74488Z" fill="white"/>
<path opacity="0.953" fill-rule="evenodd" clip-rule="evenodd" d="M2.70378 6.06666C3.55723 6.03758 4.20813 6.37807 4.65651 7.08809C5.42186 9.274 6.19292 11.457 6.96975 13.6372C8.48404 14.5405 10.0062 15.4317 11.5361 16.311C12.5359 17.0318 13.1467 18.0032 13.3687 19.2251C13.3987 20.9674 13.4088 22.7098 13.3987 24.4524C13.6067 24.4311 13.7569 24.5112 13.8494 24.6927C13.9082 26.18 13.8882 27.6621 13.7893 29.1389C13.7442 29.1765 13.6941 29.2066 13.6391 29.229C11.2357 29.2691 8.83235 29.2691 6.42899 29.229C6.37395 29.2066 6.32384 29.1765 6.27878 29.1389C6.17982 27.6621 6.15981 26.18 6.2187 24.6927C6.31116 24.5112 6.46137 24.4311 6.66933 24.4524C6.68272 23.9689 6.65268 23.4882 6.5792 23.0103C6.53077 22.8333 6.45068 22.6732 6.33886 22.5297C5.09711 21.4081 3.85539 20.2866 2.61365 19.165C2.47823 18.9543 2.35806 18.734 2.25315 18.504C1.45964 15.6605 0.708595 12.8065 0 9.94208C0.0634307 9.19373 0.403909 8.61296 1.02143 8.19964C0.988628 7.02073 1.54941 6.30976 2.70378 6.06666ZM2.76386 7.08809C3.25643 7.08875 3.60692 7.30901 3.81533 7.74901C4.48472 9.64706 5.13562 11.5497 5.76806 13.457C5.56516 13.4846 5.36484 13.5246 5.16722 13.5772C4.7138 12.0441 4.22311 10.522 3.69517 9.01077C3.33578 8.44562 2.82507 8.11516 2.16302 8.01939C2.09823 7.97889 2.05817 7.91881 2.04286 7.83914C2.15259 7.4591 2.39293 7.20873 2.76386 7.08809ZM1.80252 9.01077C2.29509 9.01144 2.64558 9.2317 2.85399 9.6717C3.35316 11.2293 3.86387 12.7815 4.38613 14.3282C3.90201 15.2546 4.02217 16.0958 4.74664 16.8517C5.75815 17.4677 6.77958 18.0686 7.81092 18.6543C8.44361 18.7629 8.67391 18.5125 8.50189 17.9032C7.59534 17.3146 6.66404 16.7638 5.70798 16.2509C5.01509 15.7989 4.93498 15.2581 5.46765 14.6286C5.64483 14.5228 5.83512 14.4527 6.03844 14.4183C6.32516 14.4865 6.59554 14.5967 6.84958 14.7488C8.2115 15.5499 9.57337 16.3511 10.9353 17.1522C11.8761 17.842 12.3668 18.7733 12.4073 19.9461C12.4374 21.448 12.4474 22.9501 12.4374 24.4524C10.8351 24.4524 9.23293 24.4524 7.63067 24.4524C7.64064 23.9112 7.63067 23.3705 7.60063 22.8301C7.47097 22.3602 7.2406 21.9496 6.90966 21.5984C5.96833 20.7772 5.02705 19.9561 4.08571 19.1349C3.79328 18.8626 3.5229 18.5722 3.27458 18.2637C2.50467 15.5045 1.75362 12.7406 1.02143 9.97212C1.10942 9.5043 1.36978 9.18388 1.80252 9.01077ZM7.15 25.4137C9.07269 25.4137 10.9954 25.4137 12.9181 25.4137C12.9181 26.3751 12.9181 27.3364 12.9181 28.2977C10.9954 28.2977 9.07269 28.2977 7.15 28.2977C7.15 27.3364 7.15 26.3751 7.15 25.4137Z" fill="white"/>
<path opacity="0.952" fill-rule="evenodd" clip-rule="evenodd" d="M25.5958 6.06689C26.9804 6.11953 27.6814 6.8305 27.6988 8.19988C28.4992 8.74904 28.8096 9.5001 28.6301 10.453C27.9054 13.2479 27.1443 16.0318 26.3469 18.8047C26.1617 19.1104 25.9313 19.3808 25.6559 19.6158C24.5587 20.5801 23.4672 21.5515 22.3814 22.5299C22.2695 22.6734 22.1894 22.8336 22.141 23.0106C22.0675 23.4884 22.0375 23.9691 22.0509 24.4526C22.2588 24.4313 22.409 24.5114 22.5015 24.6929C22.5604 26.1803 22.5404 27.6624 22.4414 29.1392C22.3964 29.1768 22.3463 29.2068 22.2912 29.2293C19.8879 29.2694 17.4845 29.2694 15.0811 29.2293C15.0261 29.2068 14.976 29.1768 14.9309 29.1392C14.832 27.6624 14.812 26.1803 14.8708 24.6929C14.9633 24.5114 15.1135 24.4313 15.3215 24.4526C15.3114 22.71 15.3215 20.9676 15.3515 19.2253C15.5607 17.9948 16.1715 17.0234 17.1841 16.3112C18.714 15.4319 20.2362 14.5407 21.7505 13.6375C22.5273 11.4573 23.2984 9.27424 24.0637 7.08832C24.4119 6.49902 24.9226 6.15852 25.5958 6.06689ZM25.716 7.08832C26.2086 7.12371 26.529 7.37408 26.6774 7.83937C26.6573 7.88942 26.6373 7.93953 26.6173 7.98958C25.9322 8.09635 25.4015 8.43685 25.025 9.01101C24.5039 10.5243 24.0132 12.0465 23.553 13.5774C23.3554 13.5249 23.1551 13.4848 22.9521 13.4572C23.5846 11.55 24.2355 9.6473 24.9049 7.74925C25.0621 7.38105 25.3324 7.16078 25.716 7.08832ZM26.6774 9.01101C27.27 9.06286 27.6105 9.38329 27.6988 9.97236C26.9665 12.7411 26.2155 15.505 25.4456 18.2639C25.1973 18.5724 24.9269 18.8629 24.6345 19.1352C23.5497 20.0525 22.4982 21.0038 21.4801 21.9892C21.3268 22.2556 21.2066 22.536 21.1196 22.8303C21.0895 23.3707 21.0796 23.9115 21.0895 24.4526C19.4873 24.4526 17.8851 24.4526 16.2828 24.4526C16.2728 22.9504 16.2828 21.4483 16.3129 19.9463C16.3534 18.7735 16.8441 17.8422 17.7849 17.1524C19.1869 16.3312 20.5889 15.5101 21.9908 14.689C22.4905 14.3085 22.9611 14.3385 23.4028 14.7791C23.7516 15.3952 23.6214 15.8859 23.0122 16.2511C22.0562 16.7641 21.1249 17.3148 20.2183 17.9034C20.0463 18.5128 20.2766 18.7631 20.9093 18.6545C21.9406 18.0688 22.9621 17.468 23.9736 16.852C24.6979 16.0984 24.8181 15.2572 24.3341 14.3284C24.8563 12.7817 25.367 11.2295 25.8662 9.67194C26.0234 9.30374 26.2938 9.08347 26.6774 9.01101ZM15.8022 25.4139C17.7248 25.4139 19.6475 25.4139 21.5702 25.4139C21.5702 26.3753 21.5702 27.3366 21.5702 28.298C19.6475 28.298 17.7248 28.298 15.8022 28.298C15.8022 27.3366 15.8022 26.3753 15.8022 25.4139Z" fill="white"/>
</svg>
