<svg width="30" height="23" viewBox="0 0 30 23" fill="none" xmlns="http://www.w3.org/2000/svg">
<path d="M13.7482 0.48102C12.161 0.899315 11.015 2.34329 10.9864 3.9649C10.9806 4.39465 11.0608 4.55509 11.3989 4.7843C11.7656 5.03642 12.2985 4.90463 12.5392 4.50925C12.6022 4.41184 12.6653 4.17118 12.6882 3.97636C12.7569 3.40908 12.9231 3.03663 13.2841 2.67563C13.6852 2.27453 14.092 2.10836 14.6651 2.10836C15.2381 2.10836 15.6449 2.27453 16.046 2.67563C16.4528 3.0882 16.6247 3.50076 16.6247 4.10242C16.619 4.44622 16.5904 4.58374 16.4528 4.87598C16.2465 5.31146 16.0288 5.53493 15.4386 5.91885C14.39 6.595 13.8055 7.65506 13.8055 8.86983V9.31678L7.57696 12.9153C1.72657 16.296 1.31974 16.5424 0.935821 16.9206C0.483146 17.3675 0.219563 17.8259 0.0820419 18.3932C-0.296142 19.9919 0.666508 21.5906 2.28239 22.0719C2.56889 22.1521 3.73209 22.1636 14.6822 22.1636H26.7612L27.1967 22.0203C28.0104 21.7453 28.6521 21.178 29.0131 20.4274C29.7466 18.8917 29.185 17.2529 27.6093 16.3189C27.3113 16.1413 24.4749 14.491 21.3005 12.6574L15.5246 9.31105V8.95578C15.5246 8.16503 15.7652 7.76393 16.5617 7.23103C17.2321 6.78409 17.616 6.37725 17.9255 5.78133C18.2292 5.19686 18.3323 4.76138 18.3323 4.07377C18.3323 2.99652 18.0229 2.25161 17.2493 1.47805C16.6878 0.916506 16.2809 0.675842 15.6048 0.503941C15.0776 0.366419 14.2181 0.354959 13.7482 0.48102ZM20.8535 14.3822C24.177 16.3075 26.9847 17.9462 27.0821 18.0207C27.1852 18.0952 27.3342 18.2671 27.4144 18.4047C27.8155 19.0923 27.552 19.9862 26.8472 20.307L26.5435 20.4446L14.5963 20.4331L2.64911 20.4159L2.36834 20.244C2.19644 20.1351 2.02453 19.9632 1.91566 19.7913C1.76668 19.5449 1.74376 19.4533 1.74376 19.1037C1.74376 18.7599 1.76668 18.651 1.9042 18.4218C1.99015 18.2729 2.1334 18.101 2.21936 18.0379C2.65484 17.7228 14.6479 10.8238 14.7224 10.8524C14.7682 10.8696 17.5244 12.4568 20.8535 14.3822Z" fill="white"/>
</svg>
