<svg width="24" height="24" viewBox="0 0 24 24" fill="none" xmlns="http://www.w3.org/2000/svg">
<path d="M11.3086 0.899551C10.4186 1.11982 9.64538 1.31312 9.59143 1.32661L9.48804 1.34908V3.3495V5.34991H7.69891H5.90977L5.67152 6.11411L5.42877 6.87832H5.03768H4.65108L4.32293 7.92123C4.14761 8.49663 3.99027 9.0046 3.97679 9.04506C3.95431 9.11698 3.99926 9.12597 4.47127 9.12597C4.75897 9.12597 4.99273 9.13946 4.99273 9.15295C4.99273 9.22487 5.26245 13.0998 5.28492 13.3561L5.31189 13.6528L4.69154 13.6797C3.98578 13.7067 3.61267 13.7921 3.09121 14.0528C1.96289 14.6192 1.13575 15.6936 0.946945 16.8354C0.915478 17.0108 0.884011 17.1951 0.87502 17.2445C0.86603 17.303 0.812086 17.3524 0.740161 17.3704C0.677227 17.3884 0.515395 17.5097 0.385031 17.6401C0.137789 17.8873 0.00292969 18.1885 0.00292969 18.4987C0.00292969 18.719 0.128798 19.0876 0.250172 19.2314C0.313106 19.3079 0.362555 19.3753 0.362555 19.3888C0.362555 19.4023 0.304116 19.5057 0.232191 19.609C-0.199359 20.2429 0.0433875 21.124 0.72218 21.4252C0.870525 21.4926 0.897497 21.5285 0.919974 21.6859C0.969422 21.9736 1.23465 22.4771 1.4729 22.7243C1.7561 23.021 2.06628 23.2188 2.4304 23.3402C2.7181 23.4391 2.75856 23.4435 6.11206 23.457C9.64088 23.4705 10.0365 23.457 10.4905 23.2862C11.1423 23.0435 11.6907 22.4186 11.8481 21.7398C11.8885 21.5555 11.929 21.5016 12.0549 21.4296C12.3605 21.2588 12.4954 21.124 12.6303 20.8542C12.7337 20.6475 12.7696 20.5126 12.7696 20.3373C12.7696 20.0631 12.6393 19.681 12.4954 19.5281L12.3965 19.4202L12.5134 19.2539C12.7247 18.9482 12.7831 18.7504 12.7606 18.4313C12.7471 18.2605 12.6977 18.0627 12.6437 17.9593C12.5359 17.748 12.2706 17.4828 12.0639 17.3794C11.9515 17.3254 11.9155 17.2715 11.893 17.1366C11.8751 17.0467 11.8526 16.9074 11.8436 16.8354C11.7717 16.4264 11.4974 15.7745 11.2277 15.3745C11.0344 15.0913 10.5894 14.6327 10.3017 14.4215C9.98252 14.1832 9.45208 13.9225 9.03851 13.7966C8.72833 13.7022 8.58898 13.6932 7.34378 13.6752C6.59306 13.6662 5.9817 13.6483 5.9817 13.6348C5.9817 13.5584 5.70748 9.6744 5.68501 9.42716L5.65803 9.12597H11.3536C15.8894 9.12597 17.0447 9.11249 17.0312 9.06754C17.0177 9.04056 16.8604 8.53259 16.6805 7.94371L16.3479 6.87832H15.9613H15.5702L15.3275 6.11411L15.0847 5.34991H13.3001H11.5109V4.16315C11.5109 3.06629 11.5154 2.97189 11.5918 2.94942C11.6323 2.94042 12.0818 2.83254 12.5898 2.72015C13.5923 2.4864 13.7676 2.42346 13.9699 2.18521C14.1542 1.97843 14.2216 1.75816 14.1991 1.41651C14.1767 1.07936 14.0328 0.827627 13.7496 0.64332C13.5968 0.539927 13.5068 0.51745 13.2461 0.508459C12.9764 0.49947 12.6842 0.557909 11.3086 0.899551ZM13.4439 1.26817C13.4934 1.32211 13.5338 1.4255 13.5338 1.51092C13.5338 1.79412 13.4799 1.8166 12.1223 2.13576C11.4345 2.29759 10.8636 2.42796 10.8546 2.42796C10.8456 2.42796 10.8366 3.08427 10.8366 3.88894V5.34991H10.4995H10.1623V3.61922C10.1623 2.66621 10.1668 1.88852 10.1758 1.88852C10.1803 1.88403 10.8231 1.72669 11.6008 1.5289C12.3785 1.3356 13.0933 1.17377 13.1832 1.17377C13.3001 1.16927 13.3765 1.19624 13.4439 1.26817ZM14.7161 6.4198C14.7835 6.64007 14.8375 6.83336 14.8375 6.84685C14.8375 6.86483 12.8865 6.87832 10.4995 6.87832C8.11247 6.87832 6.16151 6.86483 6.16151 6.84236C6.16151 6.82437 6.21545 6.63557 6.27839 6.4153L6.39976 6.02421H10.4995H14.5992L14.7161 6.4198ZM15.9928 8.00215L16.1276 8.45168H10.4995H4.86686L5.00621 8.00215L5.14107 7.55262H10.4995H15.8534L15.9928 8.00215ZM8.97108 14.4844C9.87913 14.7946 10.6298 15.4868 10.985 16.341C11.0794 16.5702 11.1333 16.7725 11.2187 17.1816C11.2322 17.258 10.9805 17.2625 6.40426 17.2625H1.57629V17.1591C1.57629 16.9748 1.71115 16.5253 1.86399 16.2061C2.28205 15.3205 3.05525 14.6822 4.00825 14.4304C4.31843 14.3495 4.47577 14.345 6.47618 14.354L8.61145 14.363L8.97108 14.4844ZM11.7851 18.0042C12.0683 18.1526 12.1717 18.5077 12.0054 18.7774C11.8211 19.0786 12.1987 19.0606 6.38627 19.0606C0.573834 19.0606 0.951441 19.0786 0.767133 18.7774C0.605302 18.5122 0.686217 18.211 0.973917 18.0222C1.09979 17.9413 1.28859 17.9368 6.37728 17.9368C11.0524 17.9368 11.6638 17.9458 11.7851 18.0042ZM2.38545 20.2833L3.16763 20.8363L2.12472 20.8498C1.12226 20.8587 1.06832 20.8542 0.94245 20.7643C0.686217 20.58 0.618788 20.3193 0.758142 20.0541C0.86603 19.8518 1.0908 19.7349 1.374 19.7349C1.59427 19.7349 1.63473 19.7574 2.38545 20.2833ZM5.15456 20.1889C5.50969 20.4407 5.80188 20.6609 5.80188 20.6834C5.80188 20.7194 5.12759 21.2049 5.0152 21.2453C4.96126 21.2678 2.83498 19.8113 2.83498 19.7529C2.83498 19.7439 3.21258 19.7349 3.67111 19.7349H4.50723L5.15456 20.1889ZM9.94207 19.8293C9.59593 20.117 7.90119 21.2678 7.85175 21.2498C7.7978 21.2274 5.82886 19.8563 5.73895 19.7709C5.71198 19.7529 6.67397 19.7349 7.87422 19.7349L10.05 19.7394L9.94207 19.8293ZM11.7672 19.8113C12.1358 19.9822 12.1987 20.4362 11.8975 20.7104L11.7357 20.8587H10.7153C10.1174 20.8587 9.71281 20.8408 9.73978 20.8183C9.76225 20.7958 10.1129 20.5441 10.522 20.2564C11.3311 19.6855 11.43 19.6495 11.7672 19.8113ZM7.15947 21.6095C7.53258 21.8702 7.85624 22.086 7.88771 22.086C7.91468 22.086 8.11247 21.9646 8.32825 21.8117L8.71934 21.533H9.95555C10.9175 21.533 11.1963 21.5465 11.1963 21.587C11.1963 21.7218 10.9715 22.1084 10.7872 22.2883C10.6838 22.3961 10.4905 22.54 10.3646 22.6029L10.1399 22.7243H6.38627H2.63269L2.43939 22.6209C2.0483 22.4141 1.72463 22.032 1.60326 21.6319L1.57179 21.533H2.85745H4.14311L4.56567 21.8252L4.98823 22.1219L5.67601 21.6274C6.05362 21.3577 6.39077 21.133 6.42673 21.133C6.4582 21.1285 6.79085 21.3442 7.15947 21.6095Z" fill="white"/>
<path d="M4.00366 15.3967V15.7339H4.34081H4.67796V15.3967V15.0596H4.34081H4.00366V15.3967Z" fill="white"/>
<path d="M8.09448 15.3967V15.7339H8.43163H8.76878V15.3967V15.0596H8.43163H8.09448V15.3967Z" fill="white"/>
<path d="M5.35229 15.8015V16.1387H5.68944H6.02659V15.8015V15.4644H5.68944H5.35229V15.8015Z" fill="white"/>
<path d="M6.74585 15.8015V16.1387H7.083H7.42015V15.8015V15.4644H7.083H6.74585V15.8015Z" fill="white"/>
<path d="M20.5016 10.0473V10.789H19.4901H18.4787V10.2946V9.80007H17.4673H16.4558V10.2946V10.789H16.1187H15.7815V10.2946V9.80007H14.7701H13.7586L13.7496 11.7196L13.7361 13.6436L13.3451 13.657C13.0708 13.666 12.9495 13.6885 12.9495 13.7245C12.954 13.7559 13.1922 15.9542 13.4799 18.6109L14.0104 23.4433L17.9752 23.4568L21.9401 23.4658L21.9581 23.3669C21.9716 23.3085 22.2053 21.1822 22.4795 18.6334C22.7537 16.0845 22.9875 13.9268 23.001 13.8324L23.028 13.666H22.7762H22.5245V11.4858V9.30559H21.513H20.5016V10.0473ZM21.8502 11.823V13.666H21.513H21.1759V11.823V9.97988H21.513H21.8502V11.823ZM15.1027 12.1691C15.1027 13.4233 15.0892 13.8414 15.0533 13.7649C15.0083 13.6795 14.9679 13.666 14.7161 13.666H14.4329V12.0702V10.4744H14.7701H15.1072L15.1027 12.1691ZM17.7954 13.4278L17.8044 16.3632H17.4673H17.1301V13.4188V10.4699L17.4583 10.4834L17.7819 10.4968L17.7954 13.4278ZM16.4333 13.9133V16.3408L16.2041 16.3542L15.9703 16.3677L15.8759 16.089C15.786 15.8148 15.7815 15.7249 15.7815 13.6346V11.4588L16.1097 11.4723L16.4333 11.4858V13.9133ZM19.144 13.9223L19.153 16.3632H18.8158H18.4787V13.9133V11.4588L18.8069 11.4723L19.1305 11.4858L19.144 13.9223ZM20.5016 13.1805V14.9023L20.2454 15.6305C20.0431 16.2149 19.9756 16.3632 19.9082 16.3632C19.8318 16.3632 19.8273 16.2508 19.8273 13.9133V11.4633H20.1644H20.5016V13.1805ZM15.0128 15.6889L15.4893 17.015H17.9797H20.4701L20.9466 15.6799L21.4231 14.3403H21.8412C22.066 14.3403 22.2548 14.3583 22.2548 14.3763C22.2548 14.3988 22.0525 16.2733 21.8052 18.539C21.558 20.8046 21.3557 22.6791 21.3557 22.7061C21.3557 22.7286 20.061 22.7466 17.9842 22.7466C16.1321 22.7466 14.6127 22.7421 14.6127 22.7331C14.6127 22.7286 14.4104 20.872 14.1632 18.6109C13.916 16.3497 13.7137 14.4617 13.7137 14.4168C13.7137 14.3448 13.7541 14.3403 14.1272 14.3493L14.5408 14.3628L15.0128 15.6889Z" fill="white"/>
<path d="M14.7565 17.8557C14.77 17.9366 14.8824 18.9211 14.9992 20.0359L15.2195 22.0723H17.9706H20.7263L20.7442 21.9734C20.7577 21.9149 20.8611 20.9979 20.9735 19.937C21.0859 18.8716 21.1893 17.9366 21.2028 17.8557L21.2252 17.7118H17.9796H14.734L14.7565 17.8557ZM20.4565 18.4041C20.4565 18.4176 20.3846 19.0694 20.2992 19.8561C20.2138 20.6428 20.1419 21.3126 20.1419 21.3395C20.1419 21.3845 19.6789 21.398 17.9841 21.398C16.7974 21.398 15.8264 21.389 15.8264 21.38C15.8264 21.3665 15.7544 20.7147 15.669 19.928C15.5836 19.1413 15.5117 18.4715 15.5117 18.4401C15.5117 18.3996 16.0376 18.3861 17.9841 18.3861C19.3462 18.3861 20.4565 18.3951 20.4565 18.4041Z" fill="white"/>
<path d="M16.3209 19.8919V20.229H16.6581H16.9952V19.8919V19.5547H16.6581H16.3209V19.8919Z" fill="white"/>
<path d="M17.6694 19.8919V20.229H18.0066H18.3437V19.8919V19.5547H18.0066H17.6694V19.8919Z" fill="white"/>
<path d="M19.0181 19.8919V20.229H19.3327H19.6474V19.8919V19.5547H19.3327H19.0181V19.8919Z" fill="white"/>
<path d="M6.74585 10.1375V10.4746H8.54397H10.3466L10.3331 10.1465L10.3196 9.82279L8.53498 9.8093L6.74585 9.80031V10.1375Z" fill="white"/>
<path d="M11.0165 10.1375V10.4746H11.466H11.92L11.9066 10.1465L11.8931 9.82279L11.457 9.8093L11.0165 9.79582V10.1375Z" fill="white"/>
</svg>
