<svg width="32" height="26" viewBox="0 0 32 26" fill="none" xmlns="http://www.w3.org/2000/svg">
<path d="M8.31865 0.0835152C4.14386 0.739111 1.10709 4.45004 1.31738 8.64338C1.37304 9.70099 1.62662 10.7586 2.06575 11.7544L2.16471 11.9894H1.45344C0.859697 11.9894 0.69889 12.0079 0.49479 12.1131C0.216471 12.2553 0 12.6079 0 12.9171C0 13.2264 0.216471 13.5789 0.49479 13.7212C0.717445 13.8325 0.853512 13.8449 2.0843 13.8449H3.4326L9.401 19.8071C14.7076 25.1075 15.3941 25.7755 15.6044 25.8126C16.192 25.9239 15.7776 26.295 22.2655 19.8071L28.2339 13.8449H29.5822C30.813 13.8449 30.9491 13.8325 31.1718 13.7212C31.4501 13.5789 31.6665 13.2264 31.6665 12.9171C31.6665 12.6079 31.4501 12.2553 31.1718 12.1131C30.9676 12.0079 30.8068 11.9894 30.2131 11.9894H29.5018L29.6008 11.7606C31.0852 8.3898 30.343 4.65413 27.6959 2.18637C26.4651 1.04836 24.9869 0.337093 23.286 0.0773296C22.5315 -0.0401821 21.1646 -0.00925827 20.441 0.145363C18.901 0.466976 17.5403 1.17824 16.3899 2.26059L15.8333 2.7863L15.2643 2.24822C14.0025 1.06073 12.5244 0.337095 10.8235 0.0835152C10.1184 -0.027813 8.99899 -0.027813 8.31865 0.0835152ZM10.805 1.96372C11.7822 2.15545 12.6233 2.52035 13.4088 3.09555C13.6005 3.2378 14.1077 3.69548 14.5344 4.10987C14.9612 4.52425 15.3694 4.88916 15.4436 4.93245C15.6168 5.01904 16.0497 5.01904 16.2229 4.93245C16.2971 4.88916 16.7239 4.5057 17.163 4.07894C18.3876 2.89145 19.1855 2.39666 20.4534 2.0503C20.9976 1.89568 21.1646 1.88331 22.0491 1.87713C22.8717 1.87713 23.1314 1.90187 23.5829 2.01938C25.1848 2.42139 26.5331 3.36768 27.4299 4.71598C28.8401 6.84358 28.8648 9.57111 27.4856 11.7544L27.3371 11.9894H24.9003H22.4696L21.3687 10.2576C20.4224 8.76089 20.2369 8.50112 20.0328 8.40217C19.7236 8.24136 19.4452 8.24755 19.1484 8.42072C18.9319 8.54442 18.7463 8.84129 17.3671 11.2472C16.5198 12.7254 15.8085 13.9562 15.7838 13.9809C15.7591 14.0057 14.8375 12.2368 13.7304 10.0535C11.8007 6.24365 11.708 6.07666 11.4729 5.94677C11.0276 5.69319 10.4834 5.82307 10.2483 6.22509C10.1865 6.33023 9.61129 7.66617 8.97425 9.18764L7.81149 11.9585L6.07354 11.977L4.34178 11.9894L4.21808 11.8224C4.15005 11.7234 3.98306 11.4266 3.84699 11.1544C2.31933 8.09292 3.42642 4.42529 6.40134 2.68116C7.63213 1.95753 9.34534 1.67921 10.805 1.96372ZM14.5901 15.8549C14.9426 16.5476 15.0292 16.6775 15.2457 16.795C15.5611 16.9744 15.858 16.9744 16.1673 16.795C16.3837 16.6713 16.5755 16.3683 17.998 13.8758C18.8762 12.3481 19.6184 11.0926 19.6432 11.0802C19.6741 11.074 20.0575 11.6369 20.4967 12.3357C21.1646 13.4057 21.3254 13.6222 21.5295 13.7212C21.7522 13.8387 21.9006 13.8449 23.6695 13.8449H25.5744L20.7008 18.7123L15.8333 23.586L10.9658 18.7123L6.0921 13.8449H7.34763C8.48564 13.8449 8.6279 13.8325 8.84437 13.7212C9.14742 13.5665 9.13506 13.5975 10.1308 11.2101C10.5761 10.1587 10.972 9.21857 11.0153 9.1258C11.0895 8.96499 11.1575 9.0825 12.6357 12.0018C13.483 13.6779 14.3613 15.4096 14.5901 15.8549Z" fill="white"/>
</svg>
