<svg width="27" height="24" viewBox="0 0 27 24" fill="none" xmlns="http://www.w3.org/2000/svg">
<path d="M12.8467 0.0875139C12.6254 0.241894 0.218395 10.8169 0.125768 10.9301C-0.167554 11.2904 0.0845995 11.8358 0.547739 11.8358C0.650659 11.8358 0.789601 11.7947 0.856499 11.7483C0.928543 11.702 3.70224 9.35031 7.0214 6.52516C10.3406 3.69486 13.0885 1.37401 13.1297 1.35858C13.1709 1.33799 13.5414 1.62102 14.0663 2.06872C16.84 4.44618 25.3463 11.6712 25.4544 11.7483C25.9124 12.0674 26.5093 11.5374 26.2469 11.0433C26.1851 10.9301 25.2537 10.1016 23.7202 8.79454L21.2861 6.72071V3.92643C21.2861 0.879998 21.2861 0.874851 20.9979 0.684449C20.8641 0.602114 20.7201 0.591822 19.3203 0.591822H17.7868L17.6222 0.76164L17.4523 0.926311L17.4369 2.16135C17.4266 2.84062 17.4112 3.39639 17.3957 3.39639C17.3803 3.39639 16.5055 2.65537 15.4505 1.75482C14.3905 0.849122 13.4796 0.0875139 13.423 0.0566378C13.2635 -0.0256987 12.9908 -0.0102606 12.8467 0.0875139ZM20.154 3.73088C20.154 4.82183 20.1437 5.71209 20.1283 5.71209C20.1128 5.71209 19.7526 5.41877 19.3306 5.05855L18.5587 4.41015V3.07734V1.74967H19.3564H20.154V3.73088Z" fill="white"/>
<path d="M12.9034 3.31409C12.6821 3.4376 2.67314 12.0108 2.58566 12.1549C2.3335 12.5666 2.71945 13.0915 3.17745 12.968C3.28037 12.9371 3.52223 12.7776 3.71778 12.6078C3.91333 12.4379 4.08829 12.299 4.11402 12.299C4.1346 12.299 4.15004 14.7331 4.15004 17.7074V23.1159L4.32501 23.2909L4.49997 23.4658H13.1555H21.8111L21.9861 23.2909L22.161 23.1159V17.7074C22.161 14.7331 22.1765 12.299 22.2022 12.299C22.2228 12.299 22.3875 12.4277 22.5727 12.5872C22.9947 12.9577 23.1902 13.0452 23.427 12.968C23.7666 12.8548 23.9158 12.4328 23.7151 12.1395C23.6225 11.9954 13.6959 3.4942 13.4386 3.33467C13.2585 3.22661 13.0783 3.21632 12.9034 3.31409ZM17.1231 7.92491L21.0238 11.2441V16.7863L21.0289 22.3337H18.7904H16.5519V18.8859V15.4381L16.4027 15.2734L16.2534 15.1036L13.243 15.0881C11.3287 15.083 10.1863 15.0933 10.0988 15.1293C10.0268 15.155 9.91871 15.2528 9.8621 15.3454C9.76433 15.5101 9.75918 15.6079 9.75918 18.9219V22.3337H7.52067H5.28216L5.29245 16.7915L5.30789 11.2441L9.21885 7.91461C11.3699 6.08264 13.1504 4.58515 13.1761 4.59545C13.2019 4.60574 14.9772 6.10322 17.1231 7.92491ZM15.4198 19.2718V22.3337H13.1555H10.8913V19.2718V16.21H13.1555H15.4198V19.2718Z" fill="white"/>
</svg>
