<svg width="27" height="27" viewBox="0 0 27 27" fill="none" xmlns="http://www.w3.org/2000/svg">
<path d="M2.60088 0.0986118C2.31086 0.274698 2.26424 0.398996 2.26424 1.0412C2.26424 1.67822 2.32639 1.83877 2.63196 1.99414L2.78215 2.07701V3.62036V5.16372L1.55472 6.11148C0.87626 6.63457 0.259954 7.11622 0.182268 7.18872C0.00100142 7.35445 -0.050789 7.60305 0.0527919 7.79985C0.177089 8.04327 0.762321 8.77351 0.881439 8.84084C1.16629 9.00139 1.2854 8.94442 2.2021 8.22453L2.5232 7.96558V14.2788V20.5973L2.26942 20.763C2.12441 20.851 1.91207 21.0375 1.79295 21.1722C1.59097 21.3948 1.28023 21.9594 1.28023 22.094C1.28023 22.1251 1.20772 22.1821 1.12485 22.2183C0.694993 22.3944 0.296207 23.0159 0.296207 23.4975C0.296207 23.6788 0.259954 23.829 0.192626 23.9378C0.104582 24.088 0.0890452 24.2019 0.0890452 24.8596C0.0890452 25.5122 0.104582 25.6313 0.192626 25.7763C0.404967 26.1285 -0.692991 26.1026 12.9227 26.1026H25.2437L25.3524 25.9835C25.5026 25.8229 25.4974 25.6106 25.3369 25.4552C25.2178 25.3309 25.1815 25.3257 24.5859 25.3257H23.9644V21.5968C23.9644 19.5459 23.9696 17.8679 23.98 17.8679C23.9903 17.8679 24.2493 18.0647 24.56 18.303C24.8656 18.5412 25.1763 18.7484 25.2488 18.7639C25.513 18.8157 25.6735 18.7017 26.0671 18.1683C26.5125 17.5675 26.5591 17.4484 26.4193 17.2154C26.3572 17.1118 24.8086 15.8792 22.2554 13.9008C20.018 12.171 18.1018 10.7001 17.993 10.6276C17.7444 10.4619 17.3301 10.4204 17.0763 10.5292C16.9779 10.5706 16.605 10.8296 16.2477 11.1041L15.6003 11.6065L15.5744 10.985C15.5433 10.2806 15.4863 10.1511 15.1756 10.1511C14.8545 10.1511 14.8286 10.2392 14.7975 11.3061L14.7716 12.2487L11.7471 14.5896C10.0846 15.874 8.65001 16.9978 8.56196 17.0859C8.43767 17.2102 8.40141 17.293 8.40141 17.4484C8.40141 17.6193 8.46356 17.7229 8.78984 18.1528C9.19381 18.6758 9.37507 18.8105 9.62367 18.7639C9.69617 18.7484 11.4881 17.4018 13.6012 15.7652L17.444 12.7925L20.3029 15.0091L23.1617 17.2257L23.1772 21.2757L23.1876 25.3257H21.6391H20.0957L20.0698 24.8752C20.0491 24.4919 20.0284 24.4142 19.93 24.3314C19.7746 24.2071 19.5364 24.2122 19.4069 24.3417C19.3188 24.4298 19.3033 24.5126 19.3033 24.8855V25.3257H17.4647H15.6262V22.3478V19.3698L17.4544 19.3802L19.2774 19.3957L19.3033 21.198C19.3292 22.9071 19.3344 23.0055 19.4276 23.078C19.6762 23.2541 19.9921 23.1039 20.0543 22.7777C20.0698 22.6844 20.0802 21.8092 20.0698 20.8355C20.0543 19.142 20.0491 19.0591 19.9455 18.9193C19.7073 18.593 19.6917 18.593 17.4492 18.593C15.2429 18.593 15.1808 18.5982 14.9633 18.8778L14.8493 19.0228V22.1717V25.3257H13.3785H11.9076L11.8921 24.7146C11.8766 24.233 11.8507 24.0724 11.7782 23.9637C11.6331 23.741 11.3897 23.6167 11.0997 23.6167H10.8459L10.8822 23.3681C10.9599 22.7466 10.6698 21.9283 10.1985 21.457C9.25596 20.5144 7.77475 20.473 6.82698 21.3638C6.58875 21.5865 6.58357 21.5917 6.35569 21.5399C6.22621 21.5088 6.01387 21.5036 5.8844 21.5191C5.64616 21.5502 5.64616 21.5502 5.44936 21.2964C5.00914 20.7164 4.27371 20.3539 3.53311 20.3539H3.30005V13.8645V7.37517L6.13299 5.17925C7.69706 3.97772 9.00218 2.98852 9.03843 2.98334C9.07469 2.97816 10.385 3.96736 11.9491 5.17925L14.7975 7.38035V8.11577C14.7975 8.78905 14.8079 8.86674 14.9011 8.95996C15.072 9.13087 15.2895 9.11533 15.4605 8.92888C15.5589 8.81495 15.5744 8.74244 15.5744 8.39026V7.97594L16.1752 8.44205C17.0193 9.09979 17.0867 9.08943 17.7289 8.22453C18.0189 7.84128 18.0862 7.71699 18.0862 7.56161C18.0862 7.45286 18.05 7.32856 18.0137 7.28195C17.9153 7.16283 9.64438 0.766708 9.47348 0.678665C9.26631 0.569904 8.78466 0.585442 8.5775 0.70974C8.4791 0.76153 7.92494 1.18103 7.33971 1.63161C6.75448 2.08219 6.24693 2.47579 6.21586 2.50169C6.16407 2.53794 6.14853 2.49651 6.14853 2.31006C6.14853 2.10808 6.16924 2.06147 6.26765 2.02522C6.45927 1.94753 6.60946 1.77144 6.67161 1.53839C6.75448 1.22247 6.70787 0.528473 6.58875 0.32131C6.4023 0.0105686 6.34015 0.000209808 4.45498 0.000209808C2.89091 0.000209808 2.7459 0.0105686 2.60088 0.0986118ZM5.94137 1.03602V1.29497H4.49123H3.0411V1.03602V0.777067H4.49123H5.94137V1.03602ZM9.62885 1.75073C12.0423 3.59447 17.154 7.58233 17.1644 7.62894C17.1747 7.6652 17.1126 7.7636 17.0349 7.85682L16.895 8.02255L13.0884 5.07567C10.9961 3.44945 9.23006 2.10808 9.16791 2.09254C9.10058 2.07701 8.997 2.07183 8.93485 2.09254C8.86753 2.10808 7.27756 3.3148 5.39757 4.77011C3.51757 6.22542 1.79813 7.55644 1.58061 7.72217L1.18182 8.02773L1.02645 7.82575L0.865902 7.62376L4.83823 4.55259C8.63447 1.61089 8.97629 1.35194 9.05915 1.34676C9.07987 1.34676 9.33882 1.52803 9.62885 1.75073ZM5.37167 2.61563V3.15425L4.50677 3.8327C4.02512 4.20042 3.62115 4.50598 3.60044 4.50598C3.57454 4.50598 3.55901 3.957 3.55901 3.2889V2.07183H4.46534H5.37167V2.61563ZM18.3296 11.8499C21.9653 14.6569 25.4042 17.3241 25.4871 17.4018C25.5855 17.5002 25.5855 17.5002 25.4612 17.6815C25.3939 17.7851 25.3214 17.8679 25.3006 17.8679C25.2851 17.8679 23.5501 16.5369 21.4526 14.9159C19.3499 13.2896 17.5839 11.9483 17.5165 11.9327C17.4492 11.9172 17.3456 11.9327 17.2835 11.9638C17.2213 12.0001 15.4708 13.3414 13.394 14.9469C11.3172 16.5524 9.59777 17.8679 9.57706 17.8679C9.55634 17.8627 9.47865 17.7799 9.40097 17.6763L9.26113 17.4898L9.37507 17.4018C14.5904 13.357 17.3663 11.2387 17.4388 11.2387C17.4906 11.2387 17.8946 11.5132 18.3296 11.8499ZM4.22192 21.2861C4.52231 21.4156 4.89002 21.7781 5.05575 22.1096C5.20594 22.3996 5.35096 22.4514 5.71867 22.3426C6.18996 22.208 6.64054 22.3582 6.90985 22.7518C7.02897 22.9227 7.05486 23.0159 7.05486 23.2748V23.5908L6.60428 23.6167C6.26247 23.6374 6.13299 23.6633 6.05013 23.741C5.92065 23.8549 5.90511 24.119 6.01387 24.2692C6.08638 24.3624 6.18996 24.3676 8.59304 24.3935L11.0945 24.4194L11.1101 24.87L11.1256 25.3257H5.99316H0.865902V24.8596V24.3935H2.73036C4.52749 24.3935 4.59999 24.3883 4.6984 24.2899C4.85377 24.1346 4.83823 23.8601 4.66732 23.7254C4.53267 23.6218 4.47052 23.6167 2.80286 23.6167H1.07306V23.4768C1.07306 23.2697 1.3113 23.0004 1.61686 22.8657C1.89135 22.7414 1.90171 22.731 2.05708 22.2442C2.34193 21.3534 3.34666 20.908 4.22192 21.2861ZM9.15237 21.659C9.81529 21.9645 10.2037 22.6637 10.1053 23.3681L10.0742 23.6167H8.97111H7.87315L7.84725 23.2386C7.82136 22.8243 7.69188 22.4773 7.44329 22.1665L7.28274 21.9645L7.52615 21.7988C7.66081 21.7108 7.86279 21.602 7.98191 21.5658C8.30301 21.457 8.81574 21.4984 9.15237 21.659Z" fill="white"/>
<path d="M6.76477 8.35466C6.68709 8.40128 6.5835 8.51004 6.53171 8.59808C6.43849 8.74827 6.43331 8.92436 6.43331 12.125C6.43331 15.8746 6.4126 15.6519 6.78549 15.8798C6.94086 15.9782 7.05998 15.9834 9.01248 15.9834C11.2654 15.9834 11.3172 15.9782 11.5295 15.683C11.6383 15.5276 11.6383 15.5225 11.6383 12.125C11.6383 9.06937 11.6279 8.70684 11.5554 8.57736C11.3689 8.26144 11.3897 8.26662 9.03837 8.26662C7.1532 8.2718 6.88389 8.27698 6.76477 8.35466ZM8.63441 9.84623V10.649H7.93524H7.23606V9.84623V9.04348H7.93524H8.63441V9.84623ZM10.8614 9.84623V10.6542L10.1519 10.6386L9.43716 10.6231L9.42162 9.83069L9.40608 9.04348H10.1363H10.8614V9.84623ZM8.63441 12.125V12.8242H7.93524H7.23606V12.125V11.4258H7.93524H8.63441V12.125ZM10.8614 12.125V12.8242H10.1363H9.41126V12.125V11.4258H10.1363H10.8614V12.125ZM8.63441 14.4038V15.2065H7.93524H7.23606V14.4038V13.601H7.93524H8.63441V14.4038ZM10.8614 14.4038V15.2117L10.1519 15.1962L9.43716 15.1806L9.42162 14.4556C9.41644 14.062 9.42162 13.7046 9.43198 13.6684C9.4527 13.6166 9.63396 13.601 10.1622 13.601H10.8614V14.4038Z" fill="white"/>
<path d="M16.0664 21.3484C15.8593 21.4571 15.8334 21.5452 15.8334 22.1459C15.8334 22.6483 15.8489 22.7415 15.9421 22.8607C16.0871 23.0471 16.3565 23.0471 16.5015 22.8607C16.5947 22.7415 16.6102 22.6535 16.6102 22.1459C16.6051 21.5504 16.5792 21.4571 16.3668 21.3484C16.2322 21.2759 16.2011 21.2759 16.0664 21.3484Z" fill="white"/>
</svg>
