<svg width="31" height="31" viewBox="0 0 31 31" fill="none" xmlns="http://www.w3.org/2000/svg">
<path d="M15.1874 0.0951824C14.7997 0.337462 14.8058 0.870478 15.1995 1.10064C15.2903 1.16121 15.4297 1.20361 15.5023 1.20361C15.575 1.20361 15.7143 1.16121 15.8052 1.10064C16.205 0.870478 16.205 0.325348 15.8052 0.0951824C15.5932 -0.0320146 15.3994 -0.0320146 15.1874 0.0951824Z" fill="white"/>
<path d="M12.129 0.416406C8.87684 1.27034 5.99406 3.34157 4.15902 6.13956C3.69269 6.86025 2.972 8.34404 2.69946 9.14346C2.20891 10.597 1.99088 11.9293 1.98483 13.4979C1.97877 15.6963 2.41482 17.5919 3.36565 19.5239L3.63818 20.075L3.11735 20.9834C-0.213592 26.7247 -0.0258484 26.3735 0.0165454 26.8277C0.0528829 27.2335 0.228514 27.5968 0.494989 27.8209C0.949208 28.2085 1.20357 28.2267 2.8327 27.9966C3.44438 27.9118 3.97733 27.8573 4.01973 27.8694C4.05606 27.8875 4.26803 28.3297 4.48 28.8565C5.10379 30.4191 5.21281 30.6068 5.6428 30.8248C6.19392 31.1034 6.79349 31.0247 7.23559 30.6129C7.50207 30.3646 7.62319 30.1708 9.33711 27.1669C9.91851 26.1555 10.0396 25.9738 10.1426 25.998C10.2092 26.0162 10.6574 26.1615 11.1419 26.3311C14.0973 27.3546 17.404 27.3001 20.3171 26.1857C20.6199 26.0707 20.8924 25.9738 20.9227 25.9738C20.9591 25.9798 21.2679 26.4764 21.6131 27.0821C21.9644 27.6877 22.5276 28.6749 22.8728 29.2744C23.2907 30.0012 23.5875 30.4493 23.7631 30.6129C24.1931 31.0065 24.7442 31.1034 25.2529 30.8733C25.7738 30.6371 25.8767 30.4796 26.5247 28.8565C26.7367 28.3297 26.9487 27.8875 26.985 27.8694C27.0274 27.8573 27.5604 27.9118 28.172 27.9966C29.4317 28.1722 29.8375 28.1904 30.1161 28.0753C30.6067 27.8694 30.9337 27.4091 30.9882 26.8519C31.0306 26.428 31.0003 26.3614 29.462 23.7027C28.7716 22.5035 28.0146 21.1954 27.7844 20.7957L27.3666 20.075L27.6391 19.5239C28.5839 17.6101 29.0139 15.7327 29.0139 13.5585C29.0199 11.996 28.8201 10.712 28.3719 9.34937C27.1425 5.60055 24.3869 2.59666 20.7592 1.05837C19.9598 0.719218 18.797 0.361899 18.3367 0.313449C18.0097 0.283168 17.9794 0.289224 17.8098 0.464856C17.61 0.664712 17.5676 0.900906 17.6887 1.16132C17.7795 1.36118 17.8825 1.40963 18.6759 1.6216C23.5451 2.92369 27.088 7.01166 27.736 12.0747C27.8329 12.8196 27.8147 14.479 27.7057 15.23C27.4514 16.9379 26.9245 18.4277 26.1008 19.7964C24.1931 22.9638 21.2255 25.0169 17.5736 25.6831C16.6228 25.8587 14.5152 25.8708 13.5947 25.7134C10.9057 25.241 8.61642 24.0661 6.78138 22.225C4.44366 19.8751 3.20213 16.8591 3.20213 13.5645C3.20213 11.4933 3.58973 9.83387 4.48606 8.04122C5.48534 6.02449 6.89039 4.44987 8.81022 3.18411C9.36134 2.82074 10.5786 2.19694 11.0813 2.02131C11.5658 1.85174 12.4379 1.58526 12.7589 1.50653C13.3524 1.36724 13.5765 0.846399 13.2071 0.470912C12.989 0.258943 12.771 0.246831 12.129 0.416406ZM5.92744 23.0728C6.82377 23.9631 7.45362 24.4718 8.50741 25.1198C8.7436 25.2652 8.9374 25.3924 8.94951 25.3984C8.96163 25.4105 8.85867 25.6043 8.71938 25.8284C8.58614 26.0586 8.01685 27.0336 7.45968 28.0026C6.56941 29.553 6.43011 29.7589 6.29688 29.7589C6.16364 29.7589 6.10913 29.662 5.66097 28.5598C5.39449 27.9057 5.09774 27.2698 5.00084 27.1487C4.79493 26.8883 4.29831 26.64 3.98945 26.64C3.86832 26.64 3.28692 26.7126 2.69946 26.7974C1.5185 26.967 1.25202 26.967 1.22174 26.8095C1.20357 26.7247 2.03328 25.2228 2.78425 23.9752C2.8751 23.8238 3.17185 23.309 3.45044 22.8245C3.72903 22.34 4.05001 21.7889 4.15902 21.5951L4.36493 21.2499L4.79493 21.8071C5.03112 22.1159 5.53984 22.6852 5.92744 23.0728ZM26.876 21.6557C27.0092 21.8858 27.306 22.3945 27.5361 22.7942C27.7663 23.194 28.3719 24.2356 28.8806 25.1138C29.3894 25.9859 29.7951 26.749 29.783 26.8095C29.7527 26.967 29.4863 26.967 28.3053 26.7974C27.7178 26.7126 27.1364 26.64 27.0153 26.64C26.7064 26.64 26.2098 26.8883 26.0039 27.1487C25.907 27.2698 25.6103 27.9057 25.3438 28.5598C24.8956 29.662 24.8411 29.7589 24.7079 29.7589C24.5746 29.7589 24.4353 29.553 23.5451 28.0026C22.9879 27.0336 22.4186 26.0586 22.2793 25.8284C22.0916 25.5074 22.0492 25.3984 22.1158 25.3621C23.6238 24.5021 25.2893 23.0486 26.2522 21.7465C26.4521 21.474 26.6216 21.256 26.6277 21.2499C26.6338 21.2499 26.7488 21.4316 26.876 21.6557Z" fill="white"/>
<path d="M14.5698 3.08753C13.2616 3.2026 12.0564 3.5478 10.8088 4.1716C9.85196 4.65004 9.07676 5.18299 8.3924 5.82495C7.95635 6.23678 7.93213 6.27312 7.93213 6.52142C7.93213 6.87269 8.18044 7.13916 8.50142 7.13916C8.71339 7.13916 8.79817 7.08465 9.38563 6.5517C10.5363 5.51609 12.2078 4.7106 13.8673 4.40174C14.7696 4.23216 16.1626 4.2261 17.0468 4.37751C18.6759 4.66821 20.4928 5.5282 21.6011 6.53354C22.2007 7.0786 22.2854 7.13916 22.5035 7.13916C22.8244 7.13916 23.0728 6.87269 23.0728 6.52142C23.0728 6.27917 23.0485 6.23678 22.6306 5.83707C21.9705 5.20722 21.1469 4.65004 20.196 4.1716C18.8939 3.52358 17.7917 3.20865 16.3503 3.08147C15.5812 3.01485 15.3571 3.01485 14.5698 3.08753Z" fill="white"/>
<path d="M4.21969 10.651C4.12883 10.7236 4.03192 10.8811 3.99558 11.0023C3.91684 11.3051 3.91684 15.8115 3.99558 16.1144C4.03192 16.2355 4.13489 16.3991 4.22575 16.4657C4.38323 16.5929 4.43774 16.5989 5.54011 16.5747C6.66066 16.5565 6.70306 16.5505 7.03619 16.3869C7.40567 16.2052 7.78726 15.8236 7.96897 15.4481C8.05377 15.2785 8.08405 15.0847 8.08405 14.6789C8.08405 14.0671 7.96897 13.74 7.62372 13.3766L7.43595 13.1828L7.54498 12.9344C7.62372 12.7588 7.66006 12.5407 7.66006 12.2258C7.66006 11.6746 7.54498 11.4081 7.13916 11.0083C6.72729 10.6086 6.43655 10.5298 5.29783 10.5298C4.46197 10.5298 4.359 10.5419 4.21969 10.651ZM6.32752 11.8926C6.55163 12.1107 6.53346 12.4135 6.29118 12.6195C6.11553 12.7649 6.06102 12.777 5.63703 12.7588L5.17669 12.7406L5.17064 12.2379L5.15852 11.7412H5.67337C6.1337 11.7412 6.19427 11.7533 6.32752 11.8926ZM6.697 14.1882C6.93322 14.4245 6.96957 14.7091 6.81208 15.012C6.66066 15.3088 6.43655 15.3815 5.76422 15.3633L5.17669 15.3451L5.15852 14.6607L5.14035 13.9823H5.81268H6.49106L6.697 14.1882Z" fill="white"/>
<path d="M9.94911 10.6566C9.47061 10.8081 8.97393 11.2442 8.73771 11.7287L8.56812 12.074V13.5579C8.56812 14.945 8.57417 15.0601 8.69531 15.3145C8.90125 15.7506 9.2889 16.1382 9.73712 16.3563C10.1005 16.538 10.1914 16.5562 10.6578 16.5562C11.2332 16.5501 11.5603 16.435 11.9903 16.0958C12.6081 15.5991 12.7777 15.054 12.7777 13.5579C12.7777 12.3102 12.705 11.9347 12.3659 11.444C11.8328 10.6627 10.894 10.3538 9.94911 10.6566ZM11.0818 11.8741C11.5239 12.1769 11.536 12.2193 11.536 13.5579C11.536 14.8784 11.53 14.9147 11.1181 15.2176C10.8577 15.4114 10.3792 15.3932 10.0945 15.1752C9.77346 14.9329 9.73712 14.733 9.76134 13.4247C9.77952 12.395 9.79163 12.2799 9.90671 12.1224C10.1793 11.7469 10.7244 11.6318 11.0818 11.8741Z" fill="white"/>
<path d="M13.4674 10.7354L13.2615 10.9413V13.5579V16.1745L13.4674 16.3805C13.6007 16.5137 13.7339 16.5864 13.8308 16.5864C14.0368 16.5864 14.3214 16.4411 14.3881 16.3017C14.4184 16.2412 14.4547 15.4962 14.4729 14.6542L14.5032 13.1097L15.6237 14.733C16.3263 15.7506 16.8048 16.3865 16.9078 16.4411C17.1925 16.5864 17.4287 16.5501 17.6589 16.3199L17.8648 16.114V13.5276C17.8648 11.8741 17.8406 10.905 17.8042 10.8262C17.7255 10.6809 17.4347 10.5294 17.2349 10.5294C17.1501 10.5294 16.9926 10.6082 16.8836 10.7051L16.6837 10.8807L16.6534 12.4677L16.6231 14.0607L15.4541 12.3647C14.7152 11.2926 14.2306 10.6445 14.1337 10.5961C13.8732 10.481 13.6855 10.5173 13.4674 10.7354Z" fill="white"/>
<path d="M18.7908 10.6505C18.6576 10.7293 18.5849 10.8262 18.5606 10.9655C18.5425 11.0745 18.5304 12.0921 18.5425 13.2247L18.5606 15.2841L18.7242 15.5627C19.5358 16.9437 21.4983 16.8953 22.2675 15.4779C22.3644 15.3023 22.3766 15.054 22.3947 13.1642C22.4068 12.0012 22.3947 10.9837 22.3766 10.9049C22.3402 10.7474 22.0131 10.5294 21.8193 10.5294C21.5891 10.5294 21.3893 10.6566 21.2863 10.8625C21.2076 11.0321 21.1954 11.3774 21.1954 13.0309V14.9994L21.0137 15.1569C20.6745 15.4355 20.2627 15.4416 19.9295 15.1569L19.7418 14.9994V13.0006C19.7418 11.2441 19.7296 10.9837 19.6388 10.8322C19.4571 10.5233 19.1179 10.4506 18.7908 10.6505Z" fill="white"/>
<path d="M24.1449 10.6506C23.6906 10.7899 23.303 11.117 23.1091 11.5107C22.8002 12.1345 22.9638 13.031 23.4604 13.4005C23.6361 13.5337 24.3932 13.8729 25.0958 14.1394C25.4411 14.2666 25.7984 14.5816 25.7984 14.7572C25.7984 14.9389 25.5198 15.2357 25.2715 15.3205C24.8414 15.4598 24.1691 15.2781 23.7391 14.8965C23.4059 14.5937 23.1212 14.5755 22.8426 14.8299C22.4065 15.2418 22.7397 15.8293 23.6603 16.2715C24.7021 16.7621 25.7682 16.6531 26.4647 15.9686C26.8281 15.6234 26.9796 15.26 26.9735 14.7391C26.9735 14.2606 26.8402 13.9456 26.5192 13.6185C26.2285 13.3338 25.968 13.1885 25.1625 12.8674C24.2357 12.498 24.163 12.4495 24.163 12.2254C24.163 11.9226 24.4477 11.7408 24.9202 11.7408C25.114 11.7408 25.3139 11.8075 25.647 11.9831C26.2043 12.2739 26.4102 12.292 26.6525 12.0498C26.7857 11.9104 26.8281 11.8135 26.8281 11.6318C26.8281 11.3411 26.6464 11.1351 26.18 10.8807C25.538 10.5294 24.7809 10.4446 24.1449 10.6506Z" fill="white"/>
<path d="M8.25917 19.9777C8.05931 20.0564 7.93213 20.2805 7.93213 20.553C7.93213 20.7771 7.96847 20.8316 8.36818 21.2071C10.4334 23.1693 13.4433 24.2231 16.2776 23.9809C18.143 23.8234 19.7418 23.2783 21.2498 22.2972C21.8373 21.9157 22.6004 21.2979 22.885 20.977C23.2484 20.5591 23.0728 20.008 22.5519 19.9353C22.3157 19.905 22.2854 19.9232 21.8433 20.3168C19.9356 21.9944 17.931 22.7817 15.5327 22.7878C14.491 22.7878 13.9278 22.7151 12.9952 22.4547C11.5598 22.0489 10.397 21.4069 9.1676 20.3229C8.70127 19.9111 8.56198 19.8565 8.25917 19.9777Z" fill="white"/>
</svg>
