<svg width="29" height="33" viewBox="0 0 29 33" fill="none" xmlns="http://www.w3.org/2000/svg">
<path d="M14.4694 0.161056L14.3083 0.315704V3.10582C14.3148 5.29022 14.3277 5.9217 14.3986 6.00547C14.5983 6.26966 15.0494 6.26966 15.2491 6.00547C15.32 5.9217 15.3329 5.29022 15.3393 3.10582V0.315704L15.1782 0.161056C15.0816 0.0579568 14.9463 -3.63064e-05 14.8238 -3.63064e-05C14.7014 -3.63064e-05 14.5661 0.0579568 14.4694 0.161056Z" fill="white"/>
<path d="M10.4099 2.86745L10.2488 3.0221V4.45904C10.2552 5.53513 10.2746 5.92175 10.339 6.00552C10.4679 6.1795 10.7385 6.25682 10.9383 6.1795C11.2669 6.05707 11.2733 6.00552 11.2798 4.45904V3.0221L11.1187 2.86745C11.022 2.76435 10.8867 2.70636 10.7643 2.70636C10.6418 2.70636 10.5065 2.76435 10.4099 2.86745Z" fill="white"/>
<path d="M18.529 2.86725L18.3679 3.0219V4.46529V5.90867L18.529 6.05687C18.6257 6.14709 18.7674 6.20508 18.8834 6.20508C18.9994 6.20508 19.1412 6.14709 19.2378 6.05687L19.3989 5.90867V4.46529V3.0219L19.2378 2.86725C19.1412 2.76415 19.0058 2.70616 18.8834 2.70616C18.761 2.70616 18.6257 2.76415 18.529 2.86725Z" fill="white"/>
<path d="M13.5351 7.31356C11.1058 7.71951 8.89562 9.34976 7.78731 11.5664C7.55534 12.0174 7.24604 12.9518 7.11073 13.5961C6.97541 14.2598 6.95608 15.6581 7.08495 16.3669C7.51668 18.7833 9.05027 20.8839 11.2025 21.9987C11.8919 22.3531 12.1432 22.4498 12.9229 22.6624C13.7284 22.875 15.2362 22.9395 16.1125 22.7848C19.3666 22.2113 21.8345 19.8143 22.5304 16.528C22.6786 15.8192 22.6786 14.2663 22.5304 13.5639C21.9118 10.69 19.9916 8.51208 17.2853 7.60352C16.1899 7.23624 14.6756 7.12025 13.5351 7.31356ZM16.6087 8.53141C17.7428 8.84715 18.632 9.3562 19.489 10.181C20.4169 11.0702 21.0484 12.1399 21.377 13.3899C21.5252 13.9377 21.5446 14.1439 21.5446 15.046C21.5446 15.961 21.5252 16.1543 21.377 16.7213C20.7455 19.0668 18.98 20.8775 16.6474 21.5541C15.5648 21.8698 14.0828 21.8698 13.0002 21.5541C9.94594 20.6713 7.92263 17.8747 8.07728 14.756C8.20615 12.2623 9.59154 10.1294 11.8146 9.01469C12.9487 8.45409 13.6188 8.30589 14.9849 8.3381C15.8484 8.35743 16.1125 8.38965 16.6087 8.53141Z" fill="white"/>
<path d="M14.521 10.0201C14.2955 10.1167 14.2568 10.2069 14.2311 10.6515C14.2182 10.9608 14.2117 10.9673 13.896 11.1284C13.3998 11.3797 13.1485 11.5988 12.8908 11.9983C12.298 12.9133 12.4268 14.086 13.213 14.8721C13.5996 15.2588 14.07 15.465 14.7208 15.5358C15.3523 15.6067 15.6809 15.8 15.9064 16.2382C16.3253 17.0694 15.7582 17.978 14.8239 17.978C14.4824 17.978 14.1022 17.8298 13.9089 17.6107C13.7478 17.4367 13.5996 17.0501 13.5996 16.8181C13.5996 16.5604 13.2967 16.2382 13.0519 16.2382C12.8199 16.2382 12.5042 16.5604 12.5042 16.7988C12.5042 17.1339 12.6975 17.7331 12.8972 18.036C13.1485 18.4033 13.374 18.5966 13.8444 18.8543L14.2117 19.0541L14.2439 19.4407C14.2633 19.6534 14.3148 19.8724 14.3599 19.9304C14.4952 20.0851 14.7852 20.1237 15.0043 20.0142C15.2363 19.8982 15.2749 19.8016 15.2749 19.3892C15.2749 19.1443 15.3007 19.0605 15.3909 19.0348C17.0598 18.4806 17.6526 16.6699 16.6023 15.3361C16.2222 14.8464 15.7195 14.5822 15.0043 14.492C14.3535 14.4146 14.0764 14.2793 13.8315 13.9314C13.3225 13.2097 13.7027 12.2496 14.5726 12.0563C15.3007 11.8952 16.0417 12.4687 16.0482 13.1968C16.0482 13.3514 16.1062 13.4674 16.235 13.6027C16.4799 13.8476 16.7119 13.8476 16.9567 13.6027C17.1823 13.3772 17.1951 13.1388 17.0212 12.5718C16.8021 11.8694 16.3124 11.3475 15.6229 11.0897L15.3071 10.9673L15.2878 10.6129C15.2685 10.3036 15.2427 10.2263 15.0752 10.0845C14.8496 9.89763 14.8045 9.89763 14.521 10.0201Z" fill="white"/>
<path d="M0.402966 22.2177C0.325642 22.295 0.248318 22.4239 0.235431 22.5012C0.16455 22.8234 -0.0480908 32.1087 0.00990225 32.2634C0.119445 32.5598 0.325642 32.5856 2.74846 32.6371L5.01019 32.6822L5.14551 32.534C5.27439 32.3987 5.31949 32.2634 5.3646 31.8445C5.37748 31.7221 5.52569 31.6126 6.13139 31.3033C7.22682 30.7362 6.9884 30.7105 11.0866 31.8639C12.9488 32.3858 14.7144 32.8562 15.0172 32.9077C15.6165 33.0173 16.7763 32.9915 17.4014 32.8626C18.3035 32.6758 18.935 32.4051 19.8178 31.8445C20.7392 31.2517 25.3722 28.2619 26.5836 27.4693C26.9702 27.218 27.6211 26.7927 28.027 26.535C28.8905 25.9872 29 25.8841 29 25.6199C29 25.1947 28.4201 24.5567 27.7435 24.2217C27.3633 24.0348 27.228 24.0026 26.7125 23.9833C26.2679 23.9639 26.0295 23.9833 25.791 24.0606C25.6171 24.1186 24.4894 24.6341 23.2909 25.2011C21.3578 26.1161 21.1001 26.2192 21.0421 26.1226C20.5523 25.2978 19.6631 24.6792 18.6966 24.4859C18.5355 24.4536 17.3692 24.3957 16.1062 24.357C13.4514 24.2797 13.2452 24.2474 12.1756 23.7062C11.8083 23.5258 11.3057 23.3002 11.0544 23.2165C9.44989 22.6687 7.33636 22.7847 5.91231 23.5C5.54502 23.6804 5.50636 23.6353 5.57079 23.094C5.62234 22.6236 5.50636 22.3337 5.20995 22.2435C5.09396 22.2048 4.00498 22.1533 2.7678 22.1275C0.557615 22.0888 0.53184 22.0888 0.402966 22.2177ZM3.6828 23.2422L4.4947 23.2809L4.47537 23.7062C4.46248 23.9381 4.42382 25.3493 4.38516 26.8378C4.3465 28.3263 4.30139 30.0081 4.27562 30.5687L4.23695 31.5932L2.65825 31.5481C1.78836 31.5224 1.06667 31.4966 1.06022 31.4901C1.04733 31.4773 1.27931 23.2745 1.28575 23.21C1.29219 23.1842 2.89023 23.1971 3.6828 23.2422ZM10.294 24.1315C10.6226 24.2152 11.2155 24.4408 11.6472 24.647C13.0841 25.3429 13.2066 25.3622 16.2286 25.4524C18.2648 25.5104 18.5355 25.5297 18.8512 25.6522C19.2829 25.8133 19.6824 26.1032 19.9531 26.4641C20.1657 26.7411 20.4106 27.2953 20.3526 27.3597C20.3333 27.3726 18.9801 27.3533 17.3498 27.3146C14.6242 27.2373 14.3729 27.2438 14.2247 27.3404C14.012 27.4757 13.9476 27.7721 14.0764 28.017C14.128 28.1201 14.2247 28.2232 14.2762 28.249C14.4502 28.3134 15.2685 28.3456 18.2326 28.4229C20.3397 28.4745 21.0678 28.4745 21.2032 28.4165C21.4416 28.3198 21.5382 28.0685 21.5124 27.6175L21.4931 27.2502L22.8463 26.6058C25.8813 25.156 26.1583 25.04 26.5836 25.04C26.8736 25.0465 27.054 25.0851 27.3118 25.2204C27.4986 25.3171 27.6468 25.4202 27.6339 25.4524C27.6211 25.4846 26.8929 25.9808 26.0037 26.5543C25.1209 27.1213 24.135 27.7592 23.8128 27.9719C19.0123 31.0906 18.6257 31.329 18.2391 31.4901C17.4723 31.7994 17.0985 31.8574 16.0482 31.8639H15.0494L13.2774 31.3613C8.47689 29.9888 7.87763 29.8341 7.34925 29.8341C6.78221 29.8341 6.46647 29.9179 5.85432 30.2207C5.6159 30.3432 5.4097 30.4269 5.39682 30.4076C5.3646 30.3689 5.5128 24.9434 5.55146 24.9111C5.66101 24.8016 6.51157 24.3957 6.87886 24.2668C7.98717 23.893 9.13415 23.8479 10.294 24.1315Z" fill="white"/>
</svg>
