<svg width="26" height="26" viewBox="0 0 26 26" fill="none" xmlns="http://www.w3.org/2000/svg">
<path d="M17.7818 0.0174572C17.8369 0.027461 18.0069 0.0624742 18.157 0.0924855C19.2324 0.312569 20.3028 1.21791 20.758 2.28831C21.2281 3.39873 21.1181 4.71923 20.4729 5.72461L20.3028 5.98971H21.8984C22.7787 5.98971 23.614 6.01472 23.7641 6.03973C24.6644 6.20979 25.3897 6.93507 25.5598 7.83541C25.6298 8.19554 25.6248 9.87118 25.5548 10.2013C25.4197 10.8265 24.9796 11.4168 24.4344 11.6969L24.1092 11.8669V17.6741C24.1092 21.4155 24.0892 23.5763 24.0592 23.7514C23.8891 24.6518 23.1639 25.377 22.2635 25.5471C21.8934 25.6171 3.71653 25.6171 3.3464 25.5471C2.44606 25.377 1.72078 24.6518 1.55072 23.7514C1.52071 23.5763 1.5007 21.4155 1.5007 17.6741V11.8669L1.17558 11.6969C0.63037 11.4168 0.190204 10.8265 0.0551532 10.2013C-0.0148732 9.87118 -0.0198751 8.19554 0.0501513 7.83541C0.220215 6.93507 0.945489 6.20979 1.84583 6.03973C1.99589 6.01472 2.8312 5.98971 3.71153 5.98971H5.30713L5.13707 5.72461C4.49183 4.71923 4.38179 3.39873 4.85196 2.28831C5.30714 1.21791 6.30251 0.372591 7.45294 0.0824818C7.8581 -0.017556 8.89349 -0.00755221 9.30364 0.107491C9.90387 0.267552 10.344 0.522648 10.7842 0.962814C11.4344 1.60806 11.8346 2.31833 12.4848 3.94894C12.6499 4.35409 12.79 4.68922 12.805 4.68922C12.82 4.68922 12.96 4.35409 13.1251 3.94894C13.7753 2.31833 14.1755 1.60806 14.8257 0.962814C15.2609 0.52765 15.7061 0.267552 16.2813 0.112493C16.5714 0.0324629 17.5768 -0.0325617 17.7818 0.0174572ZM16.4663 1.62806C15.7111 1.91817 15.3009 2.55842 14.3005 5.02435L13.9104 5.98971H15.676C16.6714 5.98971 17.5618 5.9697 17.7118 5.93969C18.6422 5.76463 19.3624 5.01934 19.5175 4.06899C19.7076 2.93356 18.8973 1.78312 17.7518 1.53803C17.4117 1.468 16.7715 1.51302 16.4663 1.62806ZM7.89811 1.53803C6.96776 1.7131 6.24749 2.45838 6.09243 3.40874C5.90236 4.56417 6.72267 5.71461 7.89811 5.93969C8.04817 5.9697 8.9385 5.98971 9.93388 5.98971H11.6995L11.3094 5.02435C10.4891 3.00358 10.0989 2.28331 9.60876 1.89817C9.15859 1.54303 8.55336 1.41298 7.89811 1.53803ZM15.8061 8.99084V10.4914H19.6575C23.424 10.4914 23.519 10.4914 23.7091 10.3914C24.0592 10.2113 24.1092 10.0412 24.1092 8.99084C24.1092 7.95045 24.0592 7.77038 23.7191 7.59532C23.539 7.49528 23.419 7.49528 19.6676 7.49028H15.8061V8.99084ZM11.3044 15.7934V24.0965H12.805H14.3055V15.7934V7.49028H12.805H11.3044V15.7934ZM1.90085 7.59031C1.55072 7.77038 1.5007 7.94045 1.5007 8.99084C1.5007 10.0412 1.55072 10.2113 1.90085 10.3914C2.09092 10.4914 2.18596 10.4914 5.95238 10.4914H9.80383V8.99084V7.49028H5.95238C2.18596 7.49028 2.09092 7.49028 1.90085 7.59031ZM15.8061 18.0443V24.0965H18.9073C21.9184 24.0965 22.0184 24.0915 22.2085 23.9965C22.3386 23.9315 22.4436 23.8264 22.5086 23.6964C22.6087 23.5013 22.6087 23.4163 22.6087 17.7441V11.992H19.2074H15.8061V18.0443ZM3.00127 17.7441C3.00127 23.4163 3.00127 23.5013 3.1013 23.6964C3.16633 23.8264 3.27137 23.9315 3.40142 23.9965C3.59149 24.0915 3.69152 24.0965 6.70266 24.0965H9.80383V18.0443V11.992H6.40255H3.00127V17.7441Z" fill="white"/>
</svg>
