<svg width="40" height="40" viewBox="0 0 40 40" fill="none" xmlns="http://www.w3.org/2000/svg">
<path d="M15.2792 2.3167C12.9236 3.59101 10.9234 4.70313 10.8384 4.78808C10.6994 4.91938 10.6839 5.05839 10.6608 6.14735C10.6299 7.5375 10.6762 7.97772 10.8847 8.18624C11.0855 8.38704 11.3481 8.37159 11.8038 8.1399L12.19 7.94682V11.6925V15.4382H11.6262C11.1628 15.4382 11.0315 15.4691 10.8925 15.5927C10.6608 15.8089 10.6608 16.226 10.8925 16.4422C11.0624 16.5967 11.1087 16.5967 19.7586 16.5967C28.4084 16.5967 28.4548 16.5967 28.6247 16.4422C28.7328 16.3341 28.7946 16.1874 28.7946 16.0174C28.7946 15.585 28.5706 15.4382 27.891 15.4382H27.3272V11.6925V7.94682L27.7133 8.1399C28.169 8.37159 28.4316 8.38704 28.6324 8.18624C28.8409 7.97772 28.8873 7.5375 28.8564 6.14735C28.8332 5.05839 28.8177 4.91938 28.6787 4.78808C28.4393 4.54867 19.9285 -0.00795231 19.7354 -0.000229227C19.6427 -0.000229227 17.6347 1.05011 15.2792 2.3167ZM23.6973 3.34387C25.798 4.47916 27.5434 5.4291 27.5821 5.46771C27.6129 5.49861 27.6361 5.80753 27.6207 6.14735L27.5975 6.75747L23.8132 4.7263C21.7357 3.60645 19.9439 2.67196 19.8358 2.64879C19.6659 2.6179 16.708 4.14707 12.4371 6.48716L11.8733 6.79609L11.8965 6.12418L11.9196 5.45227L15.8198 3.34387C17.9668 2.1854 19.7586 1.25091 19.7972 1.25863C19.8435 1.27408 21.5967 2.20857 23.6973 3.34387ZM22.925 5.56039L26.0915 7.26719V11.3527V15.4382H24.4001H22.7011L22.6779 13.5229L22.6547 11.6153L22.4308 11.1519C22.1373 10.565 21.5812 10.0012 21.0097 9.73858C20.6236 9.55323 20.4768 9.53006 19.7586 9.53006C19.0172 9.53006 18.909 9.55323 18.4843 9.75403C18.2294 9.88532 17.8664 10.1402 17.6733 10.341C17.4725 10.5341 17.2177 10.897 17.0864 11.1519L16.8624 11.6153L16.8392 13.5229L16.8161 15.4382H15.117H13.4256V11.3527V7.26719L16.5767 5.56811C18.3066 4.63362 19.7277 3.86131 19.7354 3.86131C19.7431 3.85359 21.1796 4.61818 22.925 5.56039ZM20.6622 10.8816C20.9634 11.0515 21.1333 11.2214 21.3032 11.5226L21.5349 11.9242V13.6774V15.4382H19.7586H17.9823V13.6774V11.9242L18.214 11.5226C18.546 10.9434 19.0712 10.6499 19.7586 10.6499C20.1756 10.6499 20.3301 10.6885 20.6622 10.8816Z" fill="white"/>
<path d="M4.86841 15.5697C4.71395 15.7087 0.0646513 26.5828 0.00286667 26.9535C-0.0125795 27.0848 0.033759 27.2161 0.157328 27.3551C0.327236 27.5482 3.50915 29.1083 3.94936 29.2164C4.25829 29.2859 4.73712 29.1391 5.03059 28.8766L5.29318 28.6526L6.63699 29.5485C7.37841 30.035 8.0117 30.4675 8.0426 30.4984C8.07349 30.5216 8.0117 30.7378 7.90358 30.9695C7.53287 31.7727 7.71823 32.7922 8.33607 33.3096C8.69134 33.6108 9.15472 33.8193 9.49454 33.8193C9.76484 33.8193 9.77257 33.8271 9.90386 34.2904C10.0738 34.9083 10.5912 35.4489 11.1936 35.6265C11.4176 35.696 11.6802 35.7501 11.7806 35.7501C11.9119 35.7501 11.9582 35.7964 11.9582 35.92C11.9582 36.1826 12.298 36.8391 12.5452 37.0785C12.8464 37.3565 13.4024 37.6036 13.7422 37.6036C14.0125 37.6036 14.0203 37.6114 14.1516 38.0748C14.4759 39.2564 15.8738 39.8742 16.955 39.3104C17.1172 39.2255 17.4725 38.932 17.7505 38.654C18.0208 38.376 18.2757 38.1443 18.3143 38.1443C18.3452 38.1443 18.6541 38.3528 18.9939 38.6154C19.3337 38.8702 19.774 39.156 19.9748 39.2409C20.469 39.4649 21.1409 39.4572 21.6738 39.2255C22.2145 38.9938 22.8014 38.3528 22.9713 37.8122L23.0949 37.4106L23.6973 37.4337C24.4155 37.4724 24.8171 37.3256 25.35 36.8313C25.713 36.4992 26.0914 35.8428 26.0914 35.5493C26.0914 35.3948 26.1146 35.3871 26.6166 35.418C26.9024 35.4412 27.2808 35.418 27.4584 35.3717C28.0994 35.194 28.8718 34.4217 29.0417 33.773L29.1343 33.4332H29.6827C30.6249 33.4332 31.3895 32.9312 31.7911 32.0585C31.961 31.6878 31.9764 31.5642 31.9378 31.0467L31.8992 30.4598L33.104 29.6257L34.3088 28.7839L34.5637 28.9075C35.0888 29.1546 35.39 29.0851 37.3517 28.251C39.1512 27.4864 39.5296 27.2624 39.5296 26.9612C39.5296 26.745 35.2974 15.7396 35.1506 15.5774C35.0811 15.5002 34.9189 15.4384 34.7876 15.4384C34.5173 15.4384 30.957 16.6895 30.5863 16.9212C30.2078 17.1529 30.0148 17.6009 30.0457 18.1646L30.0688 18.6358L29.0648 18.9678C28.5165 19.1455 27.9759 19.2999 27.8678 19.2999C27.7596 19.2999 26.3695 19.0528 24.7785 18.7593C21.7511 18.1878 21.0251 18.1106 20.2605 18.2959C19.7199 18.4272 19.0634 18.7748 18.3143 19.3154L17.6656 19.7865L17.1404 19.5394C16.2213 19.1146 15.8197 19.0682 13.0472 19.0682H10.5526L10.0274 18.7825C9.50998 18.4967 9.50226 18.4967 9.50226 18.1492C9.49454 17.9175 9.42503 17.709 9.28601 17.5005C9.10838 17.2302 8.89986 17.1066 7.27801 16.3188C6.26629 15.8246 5.37041 15.4384 5.24684 15.4384C5.12327 15.4384 4.95336 15.5002 4.86841 15.5697ZM8.35152 18.1801C8.39014 18.265 4.38958 27.9035 4.26601 28.027C4.21195 28.0811 3.74084 27.8957 2.75228 27.4169L1.31579 26.7295L3.35468 21.9103C4.47453 19.269 5.42447 17.0216 5.46309 16.929C5.54032 16.7668 5.57121 16.7745 6.93047 17.431C7.69506 17.7939 8.33607 18.1338 8.35152 18.1801ZM36.2164 21.4238C37.1895 23.9724 38.0391 26.1812 38.1008 26.3434L38.209 26.6214L36.7416 27.2547C35.9306 27.6023 35.2201 27.8726 35.1506 27.8571C35.0734 27.8417 34.4015 26.243 33.1117 22.9761C32.0537 20.3117 31.1887 18.072 31.1887 18.0179C31.1887 17.9561 31.2659 17.8712 31.3663 17.8248C31.7988 17.624 34.247 16.7668 34.3397 16.7745C34.4092 16.7822 35.1506 18.6358 36.2164 21.4238ZM24.8789 19.9641L27.9604 20.5434L29.2425 20.1186C30.2619 19.7788 30.5399 19.717 30.5863 19.7942C30.8025 20.1804 33.7296 27.7567 33.6832 27.7953C33.382 28.0656 31.2273 29.4944 31.1578 29.4712C31.1114 29.4481 29.9066 28.5985 28.4856 27.5714C27.0645 26.5442 25.8289 25.7101 25.7439 25.7101C25.6589 25.7101 25.3346 25.7951 25.0257 25.9032C22.8709 26.6369 21.1487 26.0345 20.3223 24.2582C19.774 23.092 19.8203 23.0842 17.596 24.4821C16.6384 25.0845 15.7193 25.6406 15.5494 25.7178C14.9548 25.9959 14.1516 25.8723 13.6959 25.4475C13.4719 25.239 13.4256 25.1386 13.4256 24.8915C13.4333 24.7215 13.4719 24.513 13.526 24.4203C13.6573 24.1732 19.4728 19.8637 19.9825 19.6243C20.4459 19.4081 21.0405 19.3077 21.4962 19.354C21.6661 19.3772 23.1876 19.6475 24.8789 19.9641ZM9.71851 19.9178L10.3364 20.2267H12.9004C14.7308 20.2267 15.5958 20.2576 15.897 20.3271C16.7311 20.5279 16.7928 20.443 14.7385 21.9644C13.7113 22.729 12.7846 23.455 12.6842 23.5863C12.3984 23.9647 12.2671 24.3586 12.2671 24.8374C12.2671 26.0113 13.2711 26.9226 14.6458 27.0076C15.5185 27.0616 15.897 26.9149 17.6887 25.7873L19.2488 24.7988L19.5268 25.2622C20.0829 26.2121 21.1641 27.0076 22.2299 27.2624C22.9095 27.4169 24.0062 27.3706 24.8789 27.1466L25.6435 26.9535L28.0763 28.7067C29.4587 29.7029 30.5786 30.5602 30.6635 30.6915C30.7716 30.8614 30.8025 31.0236 30.7794 31.3016C30.7485 31.6337 30.7021 31.7264 30.4318 31.9812C30.1538 32.2361 30.0688 32.2747 29.729 32.2747C29.4046 32.2747 29.2965 32.2361 28.9722 31.9735C27.0877 30.4443 27.0568 30.4212 26.8097 30.4212C26.493 30.4212 26.2459 30.6529 26.2459 30.9541C26.2459 31.2244 26.3386 31.3325 27.1572 31.9967C27.5048 32.2902 27.8291 32.5836 27.8678 32.6609C27.999 32.9003 27.9527 33.4564 27.7905 33.7267C27.4739 34.2441 26.7711 34.4372 26.2845 34.136C26.1609 34.0588 25.7285 33.7653 25.3269 33.4872C24.5391 32.9235 24.2765 32.854 23.9985 33.132C23.8904 33.2401 23.8517 33.3637 23.8672 33.5722C23.8904 33.8039 23.9521 33.8966 24.2997 34.1669C24.794 34.5376 24.9253 34.7538 24.933 35.1786C24.933 35.7733 24.3769 36.3139 23.7668 36.3062C23.3961 36.2984 23.2725 36.2289 22.4848 35.5261C21.7897 34.916 21.6275 34.8465 21.3186 35.0087C20.8861 35.2327 20.8861 35.5261 21.3263 36.059C21.8206 36.6769 21.921 36.8468 21.921 37.1248C21.921 37.8122 21.1796 38.4068 20.554 38.2292C20.3686 38.1752 19.1407 37.3333 19.1407 37.2561C19.1407 37.2484 19.2025 37.1248 19.272 36.9781C19.465 36.5919 19.4959 35.8196 19.3415 35.4026C19.0866 34.7538 18.3993 34.2209 17.6964 34.1437C17.4107 34.1128 17.3566 34.0819 17.3257 33.9043C17.3026 33.7962 17.1867 33.5104 17.0709 33.2787C16.8006 32.7536 16.3063 32.3983 15.6807 32.2747L15.2405 32.182L15.1092 31.7418C14.8852 30.985 14.2674 30.4752 13.4333 30.3517C13.1012 30.3053 13.0935 30.2976 13.0008 29.9346C12.7768 29.0619 11.9736 28.4441 11.0778 28.4595C10.4368 28.4672 10.1047 28.6294 9.49454 29.2241L8.97709 29.7184L7.40158 28.668C6.52887 28.0965 5.8029 27.61 5.78746 27.5945C5.75656 27.5714 9.03887 19.6166 9.08521 19.6089C9.09294 19.6089 9.37869 19.7479 9.71851 19.9178ZM11.657 29.8497C11.7728 29.9578 11.881 30.1354 11.9041 30.2435C11.9814 30.6606 11.8192 30.9232 10.9233 31.7959C10.0506 32.6454 10.0352 32.6609 9.67989 32.6609C9.38641 32.6609 9.27829 32.6223 9.09294 32.4369C8.90758 32.2516 8.86897 32.1434 8.86897 31.8422C8.86897 31.487 8.88441 31.4638 9.66444 30.6683C10.0969 30.2281 10.5603 29.7956 10.6839 29.7107C10.9851 29.5176 11.3712 29.5716 11.657 29.8497ZM13.58 31.6183C13.8272 31.7496 14.0434 32.0894 14.0434 32.352C14.0434 32.4446 13.9971 32.6068 13.9353 32.7227C13.7654 33.0548 12.2517 34.499 12.0123 34.553C11.4099 34.7075 10.8384 34.136 10.9928 33.5336C11.0469 33.3096 12.3907 31.8886 12.7691 31.6492C13.0472 31.4715 13.2788 31.4638 13.58 31.6183ZM15.7039 33.4795C15.9588 33.5954 16.2059 33.9738 16.2059 34.2441C16.2059 34.499 15.9665 34.8002 15.1401 35.6111C14.306 36.4375 14.2906 36.4452 13.9353 36.4452C13.6187 36.4452 13.5337 36.4066 13.3406 36.2058C13.163 36.0127 13.1167 35.8968 13.1167 35.6188C13.1167 35.2867 13.1398 35.2481 13.9508 34.4217C14.7076 33.6417 15.0629 33.3637 15.3409 33.356C15.4027 33.356 15.5649 33.41 15.7039 33.4795ZM17.905 35.418C18.1676 35.5725 18.2911 35.8196 18.2911 36.1903C18.2911 36.4452 18.2062 36.5533 17.3875 37.3797C16.3912 38.3991 16.1827 38.5072 15.6884 38.2678C15.3641 38.1134 15.171 37.704 15.2482 37.3411C15.3023 37.0862 16.5843 35.7038 17.0168 35.4335C17.3026 35.2558 17.6192 35.2481 17.905 35.418Z" fill="white"/>
</svg>
