<svg width="31" height="28" viewBox="0 0 31 28" fill="none" xmlns="http://www.w3.org/2000/svg">
<path d="M8.69875 0.0491821C8.42823 0.127333 8.0495 0.524096 7.97135 0.806641C7.92927 0.944907 7.90522 1.8226 7.90522 3.06098V5.09289H4.37643C0.949829 5.09289 0.84162 5.09891 0.595146 5.21312C0.450868 5.28526 0.270521 5.44758 0.174336 5.58584L0 5.83232V10.0825V14.3267L0.168324 14.5792C0.432833 14.9819 0.703354 15.0841 1.60509 15.1202L2.37457 15.1503V21.1258C2.37457 26.939 2.38058 27.1073 2.4948 27.3297C2.63908 27.6183 2.91561 27.8527 3.20417 27.9369C3.51677 28.021 27.2024 28.021 27.515 27.9369C27.8035 27.8527 28.0801 27.6183 28.2243 27.3297C28.3386 27.1073 28.3446 26.939 28.3446 21.1258V15.1503L29.1261 15.1202C29.8595 15.0901 29.9316 15.0721 30.1901 14.9158C30.3705 14.8016 30.5208 14.6453 30.6109 14.471L30.7552 14.2064L30.7372 10.0224L30.7191 5.83232L30.5448 5.58584C30.4486 5.44758 30.2683 5.28526 30.124 5.21312C29.8775 5.09891 29.7693 5.09289 26.3427 5.09289H22.8139V3.00087C22.8139 0.950918 22.8139 0.902826 22.6817 0.644328C22.5975 0.488027 22.4352 0.301668 22.2849 0.19346L22.0204 0.0131126L15.4618 0.00108946C11.428 -0.00492211 8.81898 0.0131126 8.69875 0.0491821ZM21.9422 0.854733L22.0925 0.999011V3.04896V5.09289H21.7619H21.4313V3.37959V1.66028L21.281 1.51601L21.1367 1.36572H15.3596H9.58245L9.43817 1.51601L9.28788 1.66028V3.37959V5.09289H8.95725H8.62661V3.04896V0.999011L8.7769 0.854733L8.92118 0.704444H15.3596H21.798L21.9422 0.854733ZM20.6798 3.59V5.06284H15.3596H10.0393L10.0213 3.65012C10.0153 2.87462 10.0213 2.20734 10.0393 2.16526C10.0574 2.09913 11.1154 2.08711 15.3716 2.09913L20.6798 2.11716V3.59ZM29.9076 5.93451C30.0278 6.05475 30.0278 6.1329 30.0278 10.0585C30.0278 12.5533 30.0038 14.0982 29.9677 14.1704C29.9376 14.2305 29.8234 14.3086 29.7212 14.3447C29.589 14.3928 28.0079 14.4108 24.4611 14.4108H19.3873V13.7315C19.3873 13.2145 19.3633 13.0222 19.2911 12.92L19.201 12.7877H15.3596H11.5182L11.428 12.92C11.3559 13.0222 11.3318 13.2145 11.3318 13.7315V14.4108H6.25805C2.71122 14.4108 1.13018 14.3928 0.997921 14.3447C0.895725 14.3086 0.781505 14.2305 0.751447 14.1704C0.715377 14.0982 0.691331 12.5533 0.691331 10.0585C0.691331 6.1329 0.691331 6.05475 0.811563 5.93451C0.931794 5.81428 1.00994 5.81428 15.3596 5.81428C29.7092 5.81428 29.7874 5.81428 29.9076 5.93451ZM18.6659 14.7415V15.9738H15.3596H12.0532V14.7415V13.5091H15.3596H18.6659V14.7415ZM11.3318 15.7815C11.3318 16.2684 11.3559 16.4608 11.428 16.563L11.5182 16.6952H15.3596H19.201L19.2911 16.563C19.3633 16.4608 19.3873 16.2684 19.3873 15.7815V15.1322H23.5053H27.6232V21.0476C27.6232 26.7827 27.6172 26.969 27.509 27.1013L27.3947 27.2455H15.3596H3.3244L3.21018 27.1013C3.10197 26.969 3.09596 26.7827 3.09596 21.0476V15.1322H7.21389H11.3318V15.7815Z" fill="white"/>
<path d="M5.12792 24.1557C5.05579 24.1918 5.01972 24.288 5.01972 24.4202C5.01972 24.823 4.89948 24.811 8.68678 24.811C12.4801 24.811 12.3538 24.823 12.3538 24.4202C12.3538 24.276 12.3178 24.1918 12.2396 24.1497C12.0773 24.0656 5.2722 24.0716 5.12792 24.1557Z" fill="white"/>
</svg>
