<svg width="32" height="27" viewBox="0 0 32 27" fill="none" xmlns="http://www.w3.org/2000/svg">
<path d="M0.432618 0.042207C0.343348 0.0559409 0.212876 0.152078 0.137339 0.248216C0 0.419889 0 0.50916 0 6.14006C0 11.819 0 11.8534 0.144206 12.0388L0.281545 12.2173H2.67811C5.61717 12.2173 5.35622 12.3341 5.35622 11.0019V10.0886H5.85751C6.94249 10.0817 7.897 9.88255 8.99571 9.4362C9.40772 9.26452 10.0258 9.07912 10.4446 8.99671C11.2618 8.83877 12.9785 8.6465 13.5485 8.6465H13.9193L13.9674 9.14092C14.091 10.4662 14.6472 11.8396 15.4712 12.8765C16.2953 13.9066 17.6961 14.8268 18.9597 15.1701C20.8893 15.692 22.9837 15.3349 24.618 14.2019C27.8043 11.9976 28.5322 7.63019 26.2249 4.52633C24.6936 2.46624 22.1391 1.44307 19.612 1.88255L19.0146 1.98555L17.8197 1.3744C16.309 0.605297 15.8077 0.467958 14.2833 0.419889C12.4841 0.371821 10.4172 0.75637 8.02747 1.59414C7.02489 1.94435 6.20086 2.12289 5.58283 2.12289H5.35622V1.25766C5.35622 0.783838 5.32876 0.337486 5.28755 0.268816C5.15708 0.0216062 4.85494 -0.00586166 2.68498 0.0010053C1.53133 0.00787225 0.515021 0.0284731 0.432618 0.042207ZM4.25751 6.10573V11.1186H2.67811H1.09871V6.10573V1.09285H2.67811H4.25751V6.10573ZM15.7597 1.66967C16.1717 1.77955 17.5794 2.44564 17.5794 2.52804C17.5794 2.54864 17.4489 2.64478 17.2841 2.73405C16.8652 2.9744 16.2953 3.42761 15.8627 3.8671L15.4918 4.25165L14.0773 4.25852C12.3605 4.25852 11.715 4.32032 11.5571 4.47826C11.3854 4.64306 11.406 5.04821 11.5914 5.23362C11.7425 5.3847 11.7425 5.3847 14.1665 5.36409C16.5013 5.34349 16.5906 5.35036 16.8103 5.48083C17.4833 5.90658 17.4764 6.86796 16.8034 7.36924C16.618 7.50658 16.4944 7.51345 14.4687 7.56152C11.5433 7.62332 9.91588 7.84993 8.68669 8.37869C7.78712 8.75637 7.10043 8.92118 6.15966 8.96924L5.35622 9.01045L5.36996 6.13319L5.39056 3.25594L6.24893 3.16667C6.92189 3.098 7.27897 3.0156 7.897 2.80272C9.67554 2.17783 11.0558 1.80701 12.4292 1.60101C13.2326 1.4774 15.2103 1.5186 15.7597 1.66967ZM22.2146 3.04993C24.2953 3.61989 25.9159 5.32289 26.376 7.44478C26.5133 8.07654 26.479 9.32633 26.3073 9.98555C25.7648 12.0594 24.1442 13.6525 22.0773 14.1469C21.5554 14.2705 21.3219 14.2843 20.5665 14.2568C20.0515 14.2362 19.5021 14.1744 19.2618 14.1126C17.1742 13.5358 15.5536 11.7641 15.1485 9.61474C15.0867 9.29886 15.0386 8.95551 15.0386 8.85251V8.6671L15.8833 8.6259C16.8652 8.5847 17.2361 8.47482 17.6618 8.09714C18.1356 7.68512 18.3554 7.2113 18.3897 6.55208C18.4103 6.11259 18.3897 5.92718 18.273 5.61817C18.0944 5.13749 17.7511 4.7392 17.3459 4.51946C17.1742 4.43019 17.03 4.33405 17.03 4.30658C17.03 4.21731 17.7373 3.72289 18.17 3.51002C18.6438 3.26967 19.3442 3.0362 19.8249 2.94693C20.3056 2.85766 21.7339 2.91946 22.2146 3.04993Z" fill="white"/>
<path d="M2.3278 7.0602L2.12866 7.25934V8.6602C2.12866 9.82758 2.14926 10.0817 2.23853 10.2121C2.38961 10.4319 2.63682 10.5143 2.86343 10.425C3.20677 10.2945 3.22051 10.2327 3.22737 8.6602V7.19754L3.0557 7.03273C2.82909 6.80612 2.57501 6.81299 2.3278 7.0602Z" fill="white"/>
<path d="M20.4223 4.00433C20.2575 4.14167 20.23 4.22407 20.2025 4.60862L20.1751 5.06184L19.8317 5.21978C19.1313 5.5494 18.7193 6.22922 18.7124 7.06699C18.7124 8.1863 19.4334 8.976 20.5939 9.12021C21.1845 9.19575 21.4592 9.35369 21.6309 9.71077C21.8025 10.061 21.8025 10.1846 21.6377 10.5485C21.5416 10.7545 21.4248 10.8782 21.2257 10.9743C20.7107 11.2421 20.2712 11.1048 19.8798 10.5623C19.7493 10.3769 19.5708 10.2121 19.4746 10.1846C19.2824 10.1365 18.9184 10.3082 18.8566 10.4661C18.6849 10.9194 19.1519 11.6266 19.8661 11.9837C20.1751 12.1417 20.1888 12.1623 20.1888 12.4507C20.1888 13.0481 20.3742 13.3159 20.8 13.3159C21.1502 13.3159 21.2875 13.1168 21.2875 12.6018V12.1623L21.6103 12.0043C22.5854 11.5305 23.0386 10.3906 22.654 9.37429C22.4961 8.94167 22.0703 8.46098 21.6789 8.28244C21.4523 8.17257 21.2669 8.1245 20.4841 7.98716C20.2369 7.93909 19.921 7.62321 19.8386 7.3348C19.66 6.74424 20.1133 6.10562 20.7107 6.10562C21.109 6.10562 21.2463 6.18115 21.6446 6.60004C21.9399 6.91592 21.9879 6.94339 22.1939 6.90218C22.9836 6.75111 22.7021 5.76914 21.7201 5.22665L21.2875 4.99317V4.56055C21.2875 4.16914 21.2669 4.10734 21.109 3.98373C20.8686 3.79832 20.6489 3.80519 20.4223 4.00433Z" fill="white"/>
<path d="M26.7949 14.8267C26.6507 14.9571 26.6438 15.0327 26.6438 15.8842V16.7975L25.8061 16.8387C24.7486 16.8936 23.9863 17.0653 23.0318 17.4567C21.7202 17.9992 20.3949 18.1846 17.4421 18.2601C15.0181 18.3151 14.867 18.3425 14.3383 18.8095C14.0018 19.1048 13.6996 19.6061 13.631 19.9975L13.5829 20.2516L10.7949 18.8301L8.00005 17.4086L7.47817 17.3812C6.79147 17.34 6.36572 17.4773 5.90563 17.8962C4.82066 18.8713 4.92366 20.5468 6.11164 21.3365C6.36572 21.5082 9.07817 22.9159 14.7434 25.8207C15.7803 26.3494 16.3777 26.4662 18.0601 26.4662C19.2275 26.4593 19.6121 26.4318 20.2919 26.3082C21.4661 26.0885 22.7365 25.7451 23.9726 25.3125C24.9752 24.9623 25.7992 24.7837 26.4172 24.7837H26.6438V25.6765C26.6438 26.679 26.6919 26.7958 27.1383 26.8782C27.2619 26.8988 28.3331 26.9125 29.5142 26.8988L31.6704 26.8782L31.8352 26.6859L32.0001 26.4936V20.7734C32.0001 15.0876 32.0001 15.0533 31.8558 14.8679L31.7185 14.6893H29.3288C27.0215 14.6893 26.9391 14.6962 26.7949 14.8267ZM30.9013 20.8009V25.8138H29.3219H27.7425V20.8009V15.788H29.3219H30.9013V20.8009ZM26.6438 20.7666C26.6438 22.9915 26.6232 23.6232 26.5614 23.6438C26.5134 23.6576 26.1219 23.7056 25.6962 23.7468C25.037 23.8155 24.6936 23.9048 23.3958 24.3305C21.1091 25.0928 19.5709 25.3949 17.9915 25.4018C17.14 25.4018 16.5082 25.3262 15.9657 25.1477C15.7803 25.0928 14.7709 24.5983 13.734 24.0627C12.6971 23.5202 10.685 22.4902 9.27044 21.7623C7.71851 20.9726 6.6198 20.3683 6.50993 20.2516C6.40692 20.1417 6.29018 19.9288 6.24211 19.7709C6.00864 18.9949 6.81894 18.2189 7.58804 18.473C7.74598 18.528 9.1949 19.2421 10.8155 20.073C13.4936 21.4327 13.8026 21.6043 14.1116 21.934C14.3039 22.1331 14.5923 22.3666 14.764 22.4559C15.073 22.6207 15.0799 22.6207 17.5451 22.6207C18.9048 22.6207 20.0996 22.6001 20.2026 22.5657C20.5803 22.4627 20.6902 21.9271 20.3812 21.6456C20.2576 21.5357 20.079 21.5219 17.8335 21.5425C15.4988 21.5631 15.4095 21.5563 15.1898 21.4258C14.5168 21.0001 14.5237 20.0387 15.1966 19.5374C15.382 19.4001 15.5056 19.3932 17.5314 19.352C20.4361 19.2902 22.0842 19.0567 23.3065 18.5348C24.3709 18.0816 25.0232 17.9374 26.0807 17.9237L26.6438 17.9168V20.7666Z" fill="white"/>
<path d="M29.0746 16.5022C28.9579 16.5572 28.8411 16.6464 28.8137 16.7151C28.7931 16.7769 28.7725 17.4773 28.7725 18.267C28.7725 19.7091 28.7725 19.7091 28.9441 19.8739C29.1707 20.1005 29.4248 20.0936 29.672 19.8464L29.8712 19.6473V18.2327C29.8712 16.873 29.8643 16.8181 29.7201 16.6533C29.5141 16.4336 29.3356 16.3924 29.0746 16.5022Z" fill="white"/>
</svg>
