<svg width="40" height="40" viewBox="0 0 40 40" fill="none" xmlns="http://www.w3.org/2000/svg">
<path fill-rule="evenodd" clip-rule="evenodd" d="M40 14C40 6.26801 33.732 -2.73984e-07 26 -6.11959e-07L14 -1.1365e-06C6.26801 -1.47447e-06 -2.73984e-07 6.26801 -6.11959e-07 14L-1.1365e-06 26C-1.47447e-06 33.732 6.26801 40 14 40L26 40C33.732 40 40 33.732 40 26L40 14ZM10.6605 12.3171C11.0688 12.0208 11.4685 11.7462 11.5493 11.7026C11.8343 11.5501 12.1277 11.6329 12.3702 11.9336C12.4552 12.0382 13.5482 13.6071 14.8028 15.4157C16.0575 17.2242 17.0994 18.706 17.1207 18.706C17.142 18.706 18.2392 17.9215 19.5534 16.9628C21.9223 15.2413 21.952 15.2239 22.1817 15.2065C22.3731 15.1934 22.4411 15.2065 22.5645 15.2936C22.6665 15.3634 23.5682 16.6272 25.3927 19.2594C26.8685 21.3862 28.0848 23.1337 28.1018 23.1512C28.1146 23.1686 28.2677 22.9768 28.4378 22.7284C29.0672 21.8089 29.0885 21.7827 29.2671 21.6912C29.484 21.5823 29.6371 21.5823 29.8625 21.6912C29.9859 21.7522 30.0667 21.8394 30.1347 21.9701L30.2325 22.1532L30.139 24.9859C30.0497 27.7053 30.0411 27.823 29.9518 28.0104C29.8413 28.2457 29.6414 28.3721 29.3947 28.3721C29.2033 28.3721 24.2019 26.7901 23.9935 26.6681C23.5894 26.424 23.5682 25.8096 23.9509 25.5437C24.0275 25.4958 24.4102 25.3607 24.8015 25.2474C25.197 25.1297 25.5458 25.0251 25.5756 25.0077C25.6096 24.9859 24.9929 24.0663 23.649 22.127C22.5602 20.5581 21.6628 19.2725 21.6543 19.2725C21.6458 19.2725 20.5613 20.057 19.2429 21.0114C17.7714 22.0878 16.7932 22.7677 16.6912 22.7982C16.4785 22.8548 16.2403 22.7807 16.0745 22.5977C15.8788 22.3885 9.89069 13.7204 9.82265 13.5548C9.74184 13.3674 9.75035 13.2497 9.84391 13.0362C9.91196 12.8837 10.0395 12.7704 10.6605 12.3171Z" fill="#DCEAE3"/>
</svg>
