<svg width="40" height="40" viewBox="0 0 40 40" fill="none" xmlns="http://www.w3.org/2000/svg">
<path fill-rule="evenodd" clip-rule="evenodd" d="M14 0C6.26801 0 0 6.26801 0 14V26C0 33.732 6.26801 40 14 40H26C33.732 40 40 33.732 40 26V14C40 6.26801 33.732 0 26 0H14ZM9.81137 11.4636C10.2568 11.1343 10.6929 10.8293 10.781 10.7808C11.0919 10.6114 11.412 10.7034 11.6765 11.0375C11.7693 11.1537 12.9616 12.8969 14.3303 14.9064C15.699 16.916 16.8357 18.5623 16.8589 18.5623C16.8821 18.5623 18.0791 17.6907 19.5127 16.6254C22.097 14.7127 22.1294 14.6934 22.38 14.674C22.5888 14.6595 22.663 14.674 22.7975 14.7708C22.9089 14.8483 23.8925 16.2526 25.8829 19.1773C27.4928 21.5403 28.8197 23.482 28.8383 23.5014C28.8522 23.5208 29.0192 23.3077 29.2048 23.0317C29.8915 22.01 29.9147 21.981 30.1095 21.8793C30.3461 21.7582 30.5132 21.7582 30.7591 21.8793C30.8936 21.9471 30.9818 22.0439 31.056 22.1892L31.1627 22.3925L31.0606 25.54C30.9632 28.5616 30.9539 28.6923 30.8565 28.9005C30.7359 29.162 30.5178 29.3024 30.2487 29.3024C30.0399 29.3024 24.5838 27.5447 24.3564 27.4091C23.9157 27.1379 23.8925 26.4552 24.31 26.1598C24.3936 26.1065 24.8111 25.9564 25.238 25.8305C25.6694 25.6998 26.0499 25.5836 26.0824 25.5642C26.1195 25.54 25.4467 24.5183 23.9806 22.3635C22.7929 20.6203 21.814 19.1918 21.8047 19.1918C21.7954 19.1918 20.6123 20.0634 19.174 21.1239C17.5687 22.3199 16.5016 23.0753 16.3903 23.1092C16.1583 23.1721 15.8985 23.0898 15.7176 22.8865C15.5041 22.654 8.97161 13.0228 8.89737 12.8388C8.80922 12.6306 8.8185 12.4998 8.92057 12.2626C8.99481 12.0931 9.13399 11.9672 9.81137 11.4636Z" fill="white"/>
</svg>
