<svg width="40" height="40" viewBox="0 0 40 40" fill="none" xmlns="http://www.w3.org/2000/svg">
<path fill-rule="evenodd" clip-rule="evenodd" d="M14 0C6.26801 0 0 6.26801 0 14V26C0 33.732 6.26801 40 14 40H26C33.732 40 40 33.732 40 26V14C40 6.26801 33.732 0 26 0H14ZM12.3171 29.3395C12.0208 28.9312 11.7462 28.5315 11.7026 28.4507C11.5501 28.1657 11.6329 27.8723 11.9336 27.6298C12.0382 27.5448 13.6071 26.4518 15.4157 25.1972C17.2243 23.9425 18.706 22.9006 18.706 22.8793C18.706 22.858 17.9215 21.7608 16.9628 20.4466C15.2414 18.0777 15.2239 18.048 15.2065 17.8183C15.1934 17.6269 15.2065 17.5589 15.2936 17.4355C15.3634 17.3335 16.6272 16.4318 19.2594 14.6073C21.3862 13.1315 23.1337 11.9152 23.1512 11.8982C23.1686 11.8854 22.9768 11.7323 22.7284 11.5622C21.8089 10.9328 21.7827 10.9115 21.6912 10.7329C21.5823 10.516 21.5823 10.3629 21.6912 10.1375C21.7522 10.0141 21.8394 9.93333 21.9701 9.86529L22.1532 9.76747L24.9859 9.86103C27.7053 9.95035 27.823 9.95885 28.0104 10.0482C28.2457 10.1587 28.3721 10.3586 28.3721 10.6053C28.3721 10.7967 26.7901 15.7981 26.6681 16.0065C26.424 16.4106 25.8096 16.4318 25.5437 16.0491C25.4958 15.9725 25.3607 15.5897 25.2474 15.1985C25.1297 14.803 25.0251 14.4542 25.0077 14.4244C24.9859 14.3904 24.0663 15.0071 22.127 16.351C20.5581 17.4398 19.2725 18.3372 19.2725 18.3457C19.2725 18.3542 20.057 19.4387 21.0114 20.7571C22.0878 22.2286 22.7677 23.2068 22.7982 23.3088C22.8548 23.5215 22.7807 23.7597 22.5977 23.9255C22.3885 24.1212 13.7204 30.1093 13.5548 30.1774C13.3674 30.2582 13.2497 30.2497 13.0362 30.1561C12.8837 30.088 12.7704 29.9605 12.3171 29.3395Z" fill="#DCEAE3"/>
</svg>
