<svg width="27" height="25" viewBox="0 0 27 25" fill="none" xmlns="http://www.w3.org/2000/svg">
<path d="M20.0875 0.69471C18.7703 0.945587 17.6728 1.95955 17.3121 3.26097C17.2494 3.49617 17.2181 3.92475 17.1867 5.01188C17.1606 5.9004 17.124 6.52759 17.0822 6.65826C16.9776 6.99799 16.7424 7.42657 16.4916 7.74016C16.1936 8.1008 15.7755 8.37781 14.6204 8.97887C13.6535 9.48062 13.5803 9.54857 13.5803 9.87784C13.5803 10.1026 13.8312 10.343 14.056 10.343C14.2284 10.343 15.5037 9.7315 16.2511 9.28724C16.9776 8.86388 17.5996 8.15306 17.9132 7.38998C18.1797 6.75234 18.232 6.38647 18.232 5.14777C18.232 4.53626 18.2581 3.89861 18.2895 3.72614C18.4463 2.8533 19.1571 2.04317 19.9777 1.79752L20.2181 1.72435V2.71218C20.2181 3.6791 20.2233 3.7 20.3436 3.84635C20.469 3.98747 20.4794 3.99269 21.2216 4.02405C21.922 4.05019 22.0004 4.06587 22.3192 4.21221C22.7217 4.40037 23.0248 4.68783 23.2548 5.09028C23.5056 5.53454 23.5056 5.53454 24.5301 5.53454C25.5336 5.53454 25.7008 5.57635 25.8837 5.89518C25.9883 6.07288 25.9883 6.07288 25.8681 6.80983C25.8001 7.2175 25.706 7.64086 25.659 7.76107C25.5179 8.07467 25.2618 8.33599 24.9325 8.49802L24.6346 8.64436L23.1659 8.6705C21.5979 8.69663 21.5875 8.70186 21.483 8.97364C21.4464 9.06249 21.415 9.89352 21.4046 11.127C21.3784 13.2594 21.3523 13.573 21.0753 14.8379C20.9551 15.3658 20.6676 16.3013 20.3906 17.0383L20.3017 17.2787L20.976 19.8606L21.6502 22.4426L21.9533 22.7614C22.2565 23.0802 22.3192 23.2422 22.1833 23.352C22.1363 23.3938 21.8331 23.4095 21.2112 23.399L20.3174 23.3834L19.1937 20.4826L18.0752 17.5818V16.2909V14.9947L17.9236 14.8274C17.7982 14.6863 17.7355 14.655 17.5526 14.655C17.3696 14.655 17.3069 14.6863 17.1815 14.8274L17.0299 14.9947V16.385V17.77L18.0804 20.4983C18.6606 21.9983 19.1467 23.2684 19.1623 23.3206C19.1833 23.4043 19.1153 23.4095 18.2738 23.4095H17.3592L17.2964 23.1064C17.1397 22.406 16.617 21.622 16.0159 21.1882C15.3783 20.7387 14.8661 20.5662 13.9619 20.5087L13.387 20.4722L13.2667 19.73C13.1988 19.3275 13.0943 18.8153 13.0263 18.601C12.7284 17.6289 11.9653 16.7926 11.0193 16.4006C10.5176 16.1863 9.24227 15.9198 9.06979 15.9825C8.84505 16.0714 8.70393 16.3013 8.73529 16.5313C8.78233 16.8606 8.89208 16.9233 9.73879 17.1167C10.6325 17.3205 10.9827 17.4878 11.4061 17.9059C11.8451 18.3397 12.0437 18.784 12.2005 19.6725C12.2685 20.0749 12.326 20.4199 12.326 20.4408C12.326 20.4617 11.5629 20.4826 10.6325 20.4931L8.9339 20.5087L8.7771 20.6603C8.55236 20.8746 8.54713 21.183 8.76142 21.3868L8.90776 21.5279H11.3904C12.7493 21.5279 14.0455 21.5541 14.2598 21.5802C15.1901 21.7004 16.0212 22.406 16.272 23.2945L16.3086 23.4147L12.3155 23.3938C8.41646 23.3781 8.31716 23.3781 7.89903 23.2632C5.96519 22.7509 4.57492 21.1673 4.32927 19.1969C4.14111 17.723 4.71081 16.0975 5.78749 15.0051C6.29447 14.4929 6.79099 14.1846 8.63598 13.2385C10.3921 12.3343 10.4757 12.2716 10.4235 11.911C10.3869 11.6706 10.1831 11.4929 9.9374 11.4929C9.79629 11.4929 9.36248 11.6915 8.25444 12.2559C7.43386 12.6793 6.58193 13.1236 6.36764 13.249C5.85543 13.5417 5.18643 14.0853 4.84147 14.4772C4.50174 14.8692 4.47038 14.8327 4.47561 14.0069C4.48084 13.087 4.73171 12.2925 5.24915 11.5922C5.4948 11.2577 6.01746 10.7768 6.40422 10.5312C6.91643 10.2019 7.07323 9.76286 6.83803 9.29769C6.64987 8.9266 6.40422 8.81684 5.79271 8.82207C4.90419 8.83252 3.92682 9.12521 3.10624 9.62696C0.200256 11.3936 -0.609867 15.141 1.29784 17.9791C1.62189 18.4547 2.40065 19.2125 2.91809 19.5523L3.36235 19.8397L3.45642 20.1847C3.93727 21.9879 5.40072 23.5402 7.19344 24.136C8.08719 24.4391 7.62202 24.4182 15.1954 24.4391C22.9725 24.46 22.523 24.481 22.9046 24.1046C23.1764 23.8381 23.3018 23.5506 23.3018 23.2004C23.3018 22.8346 23.1607 22.5262 22.8419 22.1865L22.5962 21.9199L22.0004 19.6307L21.4046 17.3414L21.645 16.6254C21.9429 15.7473 22.1676 14.8327 22.314 13.8971C22.4028 13.3274 22.429 12.8622 22.4499 11.4615L22.476 9.72627L23.6102 9.70536C24.5614 9.68446 24.7914 9.66355 25.0632 9.5747C25.8576 9.31337 26.5057 8.65482 26.72 7.88651C26.8716 7.3534 27.0231 6.30285 26.997 6.01016C26.9291 5.37251 26.4482 4.78714 25.8263 4.59375C25.5597 4.51013 25.335 4.48922 24.7966 4.48922L24.1119 4.48399L23.9342 4.22266C23.4429 3.50139 22.429 2.97873 21.5143 2.97351H21.2687L21.253 1.95432L21.2373 0.935135L21.0962 0.799242C20.9237 0.626764 20.6153 0.595406 20.0875 0.69471ZM5.29619 10.0399C3.73343 11.289 3.0383 13.5365 3.63413 15.4285C3.7073 15.6637 3.76479 15.925 3.76479 16.0139C3.76479 16.0975 3.68117 16.4006 3.58186 16.6829C3.48256 16.9703 3.3728 17.4041 3.33621 17.6498C3.30485 17.9007 3.26304 18.1986 3.24213 18.3136L3.20555 18.5226L2.78219 18.1045C2.10274 17.4303 1.68984 16.7299 1.44941 15.8309C1.28216 15.209 1.28216 14.0696 1.44941 13.4528C1.90935 11.7437 3.26827 10.39 4.94078 9.98237C5.50002 9.84126 5.53138 9.84648 5.29619 10.0399Z" fill="white"/>
<path d="M21.4098 5.35155C20.9813 5.59197 21.1119 6.23484 21.6084 6.30279C21.9952 6.35506 22.2827 5.97351 22.1311 5.61288C22.0945 5.52925 22.0266 5.42472 21.9795 5.38814C21.8541 5.2836 21.5666 5.2627 21.4098 5.35155Z" fill="white"/>
<path d="M11.6412 10.5466C11.3956 10.7922 11.4531 11.179 11.7615 11.3567C12.1691 11.6023 12.6657 11.1476 12.4827 10.7034C12.3468 10.3793 11.8974 10.2957 11.6412 10.5466Z" fill="white"/>
</svg>
