<svg width="23" height="26" viewBox="0 0 23 26" fill="none" xmlns="http://www.w3.org/2000/svg">
<path d="M3.81543 0.0307865C2.66741 0.228722 1.6332 0.931387 1.0493 1.91116C0.732601 2.44558 0.564357 2.9998 0.504977 3.67772C0.475287 4.04885 0.460442 7.52259 0.470339 13.0944L0.485184 21.9273L0.598996 22.3231C0.989916 23.7136 2.00433 24.7528 3.37997 25.1783L3.7511 25.2921L8.97161 25.307C12.6185 25.3169 14.2466 25.307 14.3752 25.2674C15.0779 25.0645 15.2956 24.1045 14.7513 23.5998C14.4593 23.3276 14.687 23.3375 9.25367 23.3375C3.81543 23.3375 3.92429 23.3425 3.4542 23.0654C3.1375 22.8823 2.83565 22.5458 2.66741 22.1994L2.51401 21.8778V12.6491V3.42041L2.67236 3.09877C2.92967 2.56929 3.33049 2.22291 3.86491 2.05961C4.1915 1.96064 4.28552 1.96064 10.6293 1.97054L17.0622 1.98539L17.3492 2.0992C17.75 2.2625 18.1805 2.67321 18.3834 3.08887L18.5467 3.42041L18.5714 6.6121C18.5962 10.1155 18.5813 9.93244 18.903 10.2343C19.3928 10.6994 20.145 10.5708 20.4567 9.96708C20.5458 9.79389 20.5508 9.63059 20.5508 6.6022C20.5508 3.5936 20.5458 3.39567 20.4518 3.0097C20.1252 1.65385 19.0662 0.550364 17.6807 0.119858L17.3096 0.00604439L10.6788 0.00109673C7.03185 -0.00385094 3.94408 0.010994 3.81543 0.0307865Z" fill="white"/>
<path d="M5.03757 4.67718C4.65654 4.85532 4.46851 5.14727 4.46851 5.57283C4.46851 5.86973 4.53283 6.04787 4.70603 6.23591C4.93365 6.47838 5.18107 6.5625 5.68085 6.5625C6.21033 6.5625 6.47259 6.45858 6.71506 6.15179C6.85856 5.97365 6.86846 5.92911 6.86846 5.57283C6.86846 5.21655 6.85856 5.17201 6.71506 4.99387C6.47259 4.68707 6.21033 4.58316 5.68085 4.58316C5.35426 4.58316 5.18107 4.6079 5.03757 4.67718Z" fill="white"/>
<path d="M8.99631 4.67718C8.61528 4.85532 8.42725 5.14727 8.42725 5.57283C8.42725 5.99839 8.61528 6.29034 8.99631 6.46848C9.18434 6.5526 9.38723 6.5625 12.5344 6.5625H15.8795L16.0972 6.44869C16.216 6.38931 16.3842 6.2557 16.4634 6.15179C16.6069 5.97365 16.6168 5.92911 16.6168 5.57283C16.6168 5.21655 16.6069 5.17201 16.4634 4.99387C16.3842 4.88996 16.216 4.75635 16.0972 4.69202L15.8795 4.58316H12.5344C9.38723 4.58316 9.18434 4.59306 8.99631 4.67718Z" fill="white"/>
<path d="M5.03757 8.63567C4.65654 8.81381 4.46851 9.10577 4.46851 9.53133C4.46851 9.82823 4.53283 10.0064 4.70603 10.1944C4.93365 10.4369 5.18107 10.521 5.68085 10.521C6.21033 10.521 6.47259 10.4171 6.71506 10.1103C6.85856 9.93214 6.86846 9.88761 6.86846 9.53133C6.86846 9.17504 6.85856 9.13051 6.71506 8.95237C6.47259 8.64557 6.21033 8.54165 5.68085 8.54165C5.35426 8.54165 5.18107 8.5664 5.03757 8.63567Z" fill="white"/>
<path d="M8.99631 8.63567C8.61528 8.81381 8.42725 9.10577 8.42725 9.53133C8.42725 9.95688 8.61528 10.2488 8.99631 10.427C9.18434 10.5111 9.38723 10.521 12.5344 10.521H15.8795L16.0972 10.4072C16.216 10.3478 16.3842 10.2142 16.4634 10.1103C16.6069 9.93214 16.6168 9.88761 16.6168 9.53133C16.6168 9.17504 16.6069 9.13051 16.4634 8.95237C16.3842 8.84845 16.216 8.71485 16.0972 8.65052L15.8795 8.54165H12.5344C9.38723 8.54165 9.18434 8.55155 8.99631 8.63567Z" fill="white"/>
<path d="M5.03757 12.5947C4.65654 12.7728 4.46851 13.0648 4.46851 13.4903C4.46851 13.7872 4.53283 13.9654 4.70603 14.1534C4.93365 14.3959 5.18107 14.48 5.68085 14.48C6.21033 14.48 6.47259 14.3761 6.71506 14.0693C6.85856 13.8911 6.86846 13.8466 6.86846 13.4903C6.86846 13.134 6.85856 13.0895 6.71506 12.9114C6.47259 12.6046 6.21033 12.5006 5.68085 12.5006C5.35426 12.5006 5.18107 12.5254 5.03757 12.5947Z" fill="white"/>
<path d="M8.99631 12.5947C8.61528 12.7728 8.42725 13.0648 8.42725 13.4903C8.42725 13.9159 8.61528 14.2078 8.99631 14.386C9.18434 14.4701 9.38723 14.48 12.5344 14.48H15.8795L16.0972 14.3662C16.216 14.3068 16.3842 14.1732 16.4634 14.0693C16.6069 13.8911 16.6168 13.8466 16.6168 13.4903C16.6168 13.134 16.6069 13.0895 16.4634 12.9114C16.3842 12.8074 16.216 12.6738 16.0972 12.6095L15.8795 12.5006H12.5344C9.38723 12.5006 9.18434 12.5105 8.99631 12.5947Z" fill="white"/>
<path d="M19.2396 12.5944C19.0071 12.7033 18.7992 12.9111 18.72 13.119C18.6854 13.1981 18.6508 13.4703 18.6359 13.7177L18.6062 14.168L18.3341 14.262C17.5028 14.5441 16.7704 15.3804 16.5873 16.2562C16.4933 16.7115 16.5527 17.5576 16.711 17.9634C16.9782 18.6562 17.478 19.1906 18.151 19.5073C18.6013 19.7151 18.9477 19.7745 19.7196 19.7745C20.4272 19.7745 20.5856 19.8141 20.8231 20.0664C20.9666 20.2198 20.9715 20.2446 20.9864 20.7543C21.0012 21.2194 20.9864 21.3035 20.8973 21.447C20.7093 21.7489 20.5015 21.8033 19.4771 21.8033C18.5914 21.8033 18.5765 21.8033 18.433 21.6796C18.3143 21.5806 18.2747 21.4916 18.2302 21.2491C18.1609 20.8631 17.9926 20.6058 17.7205 20.4722C17.1217 20.1852 16.3993 20.5266 16.3003 21.1501C16.2112 21.6944 16.4636 22.4763 16.8842 22.9513C17.2553 23.367 17.8293 23.6738 18.3885 23.7579L18.6062 23.7926L18.6359 24.1736C18.6706 24.6239 18.7299 24.7971 18.9081 24.9901C19.3336 25.4404 20.0264 25.4057 20.4223 24.9059C20.5658 24.7278 20.5757 24.6734 20.6004 24.2429L20.6252 23.7728L21.0012 23.6639C22.1295 23.3373 22.8519 22.4664 22.9756 21.2837C23.0598 20.4574 22.9261 19.7052 22.5996 19.1411C22.2977 18.6215 21.5901 18.0822 20.9715 17.8941C20.8627 17.8595 20.3777 17.8199 19.8978 17.8001C18.9328 17.7655 18.8685 17.7457 18.6359 17.3993C18.4825 17.1766 18.4776 16.657 18.6211 16.4195C18.7943 16.1325 19.0664 16.0533 19.7839 16.0731C20.3481 16.088 20.4025 16.0979 20.5212 16.2067C20.5955 16.276 20.6549 16.3997 20.6746 16.5284C20.7291 16.8748 20.7934 17.0282 20.9617 17.1914C21.3971 17.6121 22.0206 17.5873 22.4165 17.137C22.6095 16.9193 22.654 16.7164 22.6144 16.2216C22.5451 15.3358 21.8771 14.5342 20.927 14.2076L20.6252 14.1037L20.6004 13.6039C20.5757 13.1387 20.5658 13.0893 20.4223 12.9111C20.1254 12.535 19.6454 12.4064 19.2396 12.5944Z" fill="white"/>
<path d="M5.03757 16.5532C4.65654 16.7313 4.46851 17.0232 4.46851 17.4488C4.46851 17.7457 4.53283 17.9238 4.70603 18.1119C4.93365 18.3544 5.18107 18.4385 5.68085 18.4385C6.21033 18.4385 6.47259 18.3346 6.71506 18.0278C6.85856 17.8496 6.86846 17.8051 6.86846 17.4488C6.86846 17.0925 6.85856 17.048 6.71506 16.8698C6.47259 16.5631 6.21033 16.4591 5.68085 16.4591C5.35426 16.4591 5.18107 16.4839 5.03757 16.5532Z" fill="white"/>
<path d="M8.99631 16.5532C8.61528 16.7313 8.42725 17.0232 8.42725 17.4488C8.42725 17.8744 8.61528 18.1663 8.99631 18.3445C9.1794 18.4286 9.36249 18.4385 11.5447 18.4385C13.8902 18.4385 13.9001 18.4385 14.1179 18.3247C14.2366 18.2653 14.4049 18.1317 14.484 18.0278C14.6275 17.8496 14.6374 17.8051 14.6374 17.4488C14.6374 17.0925 14.6275 17.048 14.484 16.8698C14.4049 16.7659 14.2366 16.6323 14.1179 16.568C13.9001 16.4591 13.8902 16.4591 11.5447 16.4591C9.36249 16.4591 9.1794 16.469 8.99631 16.5532Z" fill="white"/>
</svg>
