<svg width="29" height="16" viewBox="0 0 29 16" fill="none" xmlns="http://www.w3.org/2000/svg">
<path d="M10.9246 0.580317C10.3315 0.657917 9.81598 0.868548 9.36146 1.22884C9.02334 1.48936 9.02888 1.48381 7.55447 3.4072C6.83943 4.34396 6.22417 5.13105 6.18537 5.16431C6.15211 5.19202 5.13221 5.4858 3.9294 5.81283C2.66007 6.15649 1.59583 6.47798 1.39629 6.57221C0.731137 6.8937 0.193474 7.60874 0.049358 8.36811C-0.0448716 8.85589 0.00501469 10.9345 0.121416 11.2726C0.320961 11.8602 0.77548 12.4144 1.30206 12.7193C1.62355 12.9022 2.20001 13.0463 2.61573 13.0463C2.84853 13.0463 2.89287 13.063 2.92059 13.1683C2.93722 13.2403 3.04808 13.4898 3.16448 13.7281C3.61345 14.6094 4.47261 15.2302 5.50359 15.4076C5.94702 15.4852 6.05234 15.4852 6.50131 15.4076C7.53784 15.2358 8.40808 14.6094 8.85151 13.7226C8.96791 13.4898 9.07877 13.2403 9.0954 13.1683L9.12866 13.0463H14.0175H18.9064L18.9396 13.1683C18.9562 13.2403 19.0671 13.4898 19.1835 13.7281C19.6325 14.615 20.4972 15.2358 21.5337 15.4076C21.9827 15.4852 22.088 15.4852 22.5314 15.4076C23.6788 15.2081 24.6599 14.4265 25.0257 13.4066L25.1477 13.0741L25.7186 13.0408C26.0346 13.0186 26.4059 12.9743 26.5445 12.9355C27.2873 12.7359 27.9801 12.0597 28.2462 11.2726C28.3626 10.9456 28.4125 8.55103 28.3238 8.10206C28.1907 7.48125 27.8027 6.86598 27.3316 6.53895C27.2097 6.45581 26.55 6.12878 25.8683 5.81837L24.6322 5.24745L23.5735 3.56241C22.4095 1.70553 22.0381 1.25101 21.4118 0.923977C20.6801 0.535973 20.9129 0.552602 15.8467 0.541515C13.3302 0.535973 11.1186 0.552602 10.9246 0.580317ZM20.22 1.73879C20.6635 1.81639 21.0348 1.9993 21.3286 2.30416C21.4561 2.43719 22.0658 3.35178 22.6866 4.34396L23.8118 6.1454L25.2142 6.79393C25.9847 7.14867 26.6775 7.49788 26.7496 7.56993C26.8272 7.64199 26.9547 7.80828 27.0323 7.94685C27.1819 8.19628 27.1819 8.20737 27.1986 9.43235C27.2207 10.807 27.1819 11.0232 26.8715 11.4001C26.5999 11.7271 26.3228 11.8435 25.7408 11.8712L25.2419 11.8934L25.1754 11.5442C24.9537 10.3747 23.9116 9.33813 22.6922 9.08315C22.1933 8.97784 21.8829 8.97784 21.3785 9.08315C20.1092 9.35475 19.056 10.4245 18.8676 11.644L18.8288 11.8823H14.0231H9.22289L9.15637 11.5497C8.99008 10.6851 8.28613 9.77047 7.47687 9.36584C6.76183 9.01664 6.10222 8.92795 5.35947 9.08315C4.29523 9.31041 3.40282 10.0642 3.00928 11.0675C2.93722 11.2449 2.86516 11.5054 2.84299 11.644L2.80419 11.899L2.46053 11.8657C2.02818 11.8324 1.6956 11.6606 1.45172 11.3391C1.18011 10.9788 1.14686 10.7793 1.16903 9.53213C1.18566 8.28497 1.22446 8.14086 1.618 7.79719C1.87852 7.56993 1.97275 7.53668 4.45598 6.86598C5.6477 6.55004 6.69532 6.24518 6.784 6.20083C6.88932 6.1454 7.47687 5.42483 8.38591 4.22756C9.173 3.19103 9.89912 2.27645 9.99335 2.19885C10.2206 2.00485 10.6918 1.79422 11.0132 1.73879C11.4123 1.67227 19.7988 1.67227 20.22 1.73879ZM6.8616 10.358C7.25515 10.5354 7.70413 10.9788 7.87041 11.3557C8.33048 12.3978 7.89813 13.584 6.87823 14.0829C6.59554 14.2214 6.50131 14.2381 6.00799 14.2381C5.52576 14.2381 5.4149 14.2214 5.14884 14.0939C4.12895 13.6173 3.68551 12.3978 4.14557 11.3613C4.36729 10.8513 4.96038 10.3636 5.52022 10.2194C5.88051 10.1308 6.49023 10.1917 6.8616 10.358ZM22.8806 10.358C23.7065 10.7294 24.2109 11.6772 24.0502 12.5586C23.8728 13.5286 23.1301 14.1993 22.1711 14.2547C21.445 14.2935 20.8408 14.033 20.4085 13.4842C19.9928 12.9577 19.8653 12.1262 20.1147 11.4832C20.3309 10.9068 20.9295 10.3747 21.5392 10.2194C21.8995 10.1308 22.5093 10.1917 22.8806 10.358Z" fill="white"/>
</svg>
