<svg width="23" height="23" viewBox="0 0 23 23" fill="none" xmlns="http://www.w3.org/2000/svg">
<path d="M7.61314 0.0393715C5.45153 0.281958 3.38956 1.37792 2.02068 3.01537C0.643146 4.66149 -0.0759465 6.70181 0.00635926 8.72046C0.0323505 9.43089 0.136316 9.95505 0.482866 11.168C0.807757 12.3116 0.851076 12.5109 0.881399 12.9874C0.937714 13.8234 0.755775 14.6335 0.326918 15.4825C0.088665 15.9634 0.0670056 16.0283 0.0843331 16.2146C0.0973288 16.3272 0.144979 16.4702 0.19263 16.5352C0.357242 16.7604 1.072 17.0723 1.73045 17.2066C2.11599 17.2846 2.88706 17.2976 3.26393 17.2283C3.88339 17.12 4.57216 16.8384 5.01835 16.5178L5.21761 16.3749L5.77642 16.5612C7.92937 17.2803 10.169 17.12 12.2223 16.0977C16.4458 13.9924 18.1959 9.05402 16.1903 4.89541C14.8864 2.19232 12.3349 0.377258 9.36755 0.0350399C8.91704 -0.0126114 8.08099 -0.0126114 7.61314 0.0393715ZM9.49751 1.38225C10.6888 1.5382 11.9753 2.09268 12.9544 2.87242C15.6141 4.99071 16.4458 8.55152 14.9947 11.5882C14.3535 12.931 13.0756 14.2176 11.6894 14.9107C11.1566 15.1793 10.5718 15.3872 9.97402 15.5258C9.54083 15.6211 9.3199 15.6471 8.66579 15.6645C7.51351 15.6948 6.79009 15.5648 5.75477 15.1533C5.4602 15.032 5.17429 14.9367 5.11365 14.9367C4.95337 14.9367 4.7541 15.0407 4.49419 15.2573C3.85307 15.7944 2.96503 16.05 2.15064 15.9374C1.94704 15.9071 1.75644 15.8681 1.72612 15.8507C1.6828 15.8204 1.70879 15.7164 1.83008 15.3872C1.92105 15.149 2.04234 14.7244 2.09866 14.4385C2.19829 13.9664 2.20262 13.8494 2.1853 13.139C2.16364 12.2726 2.14631 12.1903 1.70446 10.6568C1.38823 9.57384 1.32325 9.2013 1.32325 8.48221C1.32325 7.31693 1.54418 6.37258 2.07267 5.30694C3.17296 3.08035 5.38656 1.57286 7.89038 1.3346C8.31058 1.29562 8.99934 1.31728 9.49751 1.38225Z" fill="white"/>
<path d="M4.42919 7.5248C4.20826 7.58112 4.03065 7.69374 3.87471 7.87568C3.46751 8.35219 3.58447 9.07995 4.12162 9.4135C4.31223 9.53046 4.37287 9.54346 4.66744 9.54346C4.96201 9.54346 5.02266 9.53046 5.21326 9.4135C6.04498 8.89801 5.75041 7.61144 4.77141 7.51181C4.65445 7.49881 4.50283 7.50747 4.42919 7.5248Z" fill="white"/>
<path d="M8.22397 7.53792C7.95539 7.61589 7.71281 7.81516 7.59151 8.07074C7.48755 8.27434 7.47455 8.34798 7.49188 8.60789C7.50488 8.85914 7.53087 8.94578 7.63916 9.09739C7.84709 9.39629 8.08535 9.53491 8.41024 9.55657C8.75246 9.57823 8.96039 9.51326 9.18131 9.31399C9.5062 9.01942 9.6145 8.64688 9.49754 8.24401C9.34159 7.70253 8.76112 7.38197 8.22397 7.53792Z" fill="white"/>
<path d="M12.0187 7.5549C11.4339 7.74117 11.1394 8.44727 11.4209 8.99309C11.7501 9.62987 12.5689 9.76416 13.0714 9.26166C13.288 9.0494 13.3746 8.82848 13.3746 8.50792C13.3746 7.83214 12.6772 7.34264 12.0187 7.5549Z" fill="white"/>
<path d="M19.4133 7.74136C19.1577 7.85833 19.0321 8.07492 19.0581 8.36516C19.0754 8.56442 19.11 8.63806 19.3396 8.93696C20.4443 10.3925 20.9511 12.0819 20.8211 13.884C20.7692 14.6247 20.6825 15.0319 20.3706 15.9546C20.0327 16.9639 19.9548 17.3711 19.9504 18.1639C19.9504 18.9783 20.0674 19.6107 20.3533 20.3428C20.4226 20.5161 20.4789 20.672 20.4789 20.6937C20.4789 20.776 19.9548 20.8366 19.4523 20.815C18.6769 20.7847 18.1917 20.5811 17.4553 19.9833C17.191 19.771 17.0177 19.7797 16.4199 20.0222C15.9045 20.2345 15.5016 20.3515 14.9125 20.4684C14.371 20.5724 13.0021 20.5767 12.426 20.4684C11.2217 20.2432 10.1907 19.7927 9.22902 19.0649C8.73086 18.6924 8.6009 18.636 8.34532 18.7054C7.91213 18.8223 7.73019 19.2772 7.95545 19.693C8.07241 19.9139 9.05575 20.5984 9.76618 20.9536C11.0268 21.5861 12.2353 21.8676 13.6822 21.872C14.7218 21.872 15.6445 21.716 16.5542 21.3868L16.9181 21.2568L17.23 21.4561C18.5382 22.3051 20.2103 22.3961 21.5619 21.69C21.9388 21.4908 22.0471 21.3695 22.0731 21.0922C22.0904 20.9103 22.0601 20.828 21.8045 20.3082C21.1677 19.0043 21.094 17.878 21.5662 16.5394C22.0211 15.2615 22.1467 14.5641 22.1424 13.3555C22.138 12.1556 21.9691 11.2372 21.5576 10.1975C21.146 9.16222 20.3576 7.94063 19.9764 7.7457C19.7598 7.6374 19.6429 7.6374 19.4133 7.74136Z" fill="white"/>
</svg>
