<svg width="26" height="27" viewBox="0 0 26 27" fill="none" xmlns="http://www.w3.org/2000/svg">
<path d="M10.8954 0.859802C9.81747 0.960073 8.40365 1.32606 7.33075 1.78731C5.21002 2.68975 3.3149 4.27403 2.01138 6.21928C-0.911521 10.5961 -0.625749 16.3918 2.71829 20.5079C4.39782 22.5735 6.84444 24.0976 9.41137 24.6691C10.6146 24.9348 10.5494 24.9298 15.3324 24.975C17.799 24.995 19.8997 25.0251 19.995 25.0451C20.0902 25.0602 20.396 25.1103 20.6718 25.1554C21.9302 25.346 23.2237 25.747 24.3568 26.2935C24.7829 26.4991 24.9784 26.5141 25.2592 26.3737C25.4848 26.2584 25.6603 25.9726 25.6603 25.722C25.6603 25.5214 25.4998 25.2056 25.3494 25.1153C25.2843 25.0752 25.0085 24.9348 24.7328 24.8095C22.8828 23.9622 20.6317 23.4759 18.516 23.4609C18.0297 23.4609 17.9344 23.4508 18.0096 23.4007C18.4959 23.1049 19.4284 22.4481 19.7393 22.1924C20.2557 21.7613 21.1531 20.8288 21.5592 20.3073C24.9233 15.9656 24.9534 9.95939 21.6344 5.56752C21.2133 5.01102 20.2807 4.03338 19.7393 3.58216C17.3177 1.5617 14.074 0.564003 10.8954 0.859802ZM13.0813 2.36387C15.6081 2.61956 17.9946 3.79273 19.6942 5.60763C21.1531 7.16183 22.0806 9.01684 22.4566 11.1576C22.5519 11.7041 22.5719 11.9849 22.5719 12.8873C22.5719 14.1056 22.4817 14.7874 22.1759 15.8453C20.8423 20.4678 16.4454 23.6514 11.6725 23.4508C6.62885 23.2353 2.52777 19.6255 1.64037 14.617C1.47493 13.6794 1.47493 12.0952 1.64037 11.1576C2.22195 7.87877 4.15717 5.17145 7.07004 3.57213C8.80974 2.61454 11.0809 2.15831 13.0813 2.36387Z" fill="white"/>
<path d="M11.3315 3.9633C10.7851 4.10869 10.394 4.3343 9.96786 4.76546C9.53168 5.19663 9.31108 5.58267 9.16569 6.1492C8.9852 6.85611 9.07545 7.62319 9.4264 8.28999C9.63697 8.69608 10.2486 9.30774 10.6547 9.51831C11.3215 9.86925 12.0886 9.9595 12.7955 9.77901C13.367 9.63362 13.7481 9.41302 14.1792 8.97684C14.6154 8.54066 14.841 8.14961 14.9814 7.5931C15.1619 6.88619 15.0716 6.11912 14.7207 5.45232C14.5101 5.04622 13.8985 4.43457 13.4924 4.224C12.8306 3.87807 12.0334 3.78281 11.3315 3.9633ZM12.7454 5.53755C13.2718 5.79324 13.5525 6.2595 13.5525 6.87115C13.5525 7.29731 13.4473 7.58308 13.1815 7.8889C12.7704 8.35015 11.9933 8.49554 11.4118 8.20977C10.6096 7.8137 10.3338 6.816 10.8202 6.05395C11.2212 5.42224 12.0535 5.20164 12.7454 5.53755Z" fill="white"/>
<path d="M5.73637 8.07907C5.39043 8.14926 4.79382 8.43503 4.50303 8.66566C3.33488 9.59818 3.02905 11.1073 3.72593 12.486C3.9365 12.9021 4.54314 13.4837 5.00439 13.7093C6.20263 14.2909 7.53122 14.0753 8.46373 13.1377C10.043 11.5585 9.44639 8.96647 7.32065 8.18937C6.9346 8.04398 6.1575 7.99384 5.73637 8.07907ZM6.87444 9.62826C7.24043 9.76362 7.5262 10.0243 7.69666 10.3703C7.81197 10.6059 7.83704 10.7212 7.83704 11.0321C7.83203 11.4732 7.70669 11.7891 7.41089 12.0849C7.11008 12.3857 6.79924 12.511 6.35805 12.511C5.74639 12.511 5.29016 12.2303 4.99436 11.6688C4.82891 11.3629 4.82891 10.7012 4.99937 10.3803C5.37038 9.66335 6.14246 9.35753 6.87444 9.62826Z" fill="white"/>
<path d="M17.2124 8.07441C15.568 8.43037 14.5101 10.0297 14.8561 11.6541C15.0516 12.5766 15.7435 13.4188 16.6208 13.7949C16.9116 13.9202 17.5082 14.0405 17.8291 14.0405C18.526 14.0355 19.3081 13.7146 19.8345 13.2133C20.4311 12.6518 20.737 11.99 20.7821 11.1828C20.8573 9.81411 20.0501 8.64094 18.7065 8.16967C18.3806 8.05435 17.5433 7.99921 17.2124 8.07441ZM18.4658 9.69378C18.7616 9.84419 18.9872 10.0698 19.1477 10.3806C19.3181 10.7015 19.3181 11.3633 19.1527 11.6691C18.9772 12 18.7566 12.2206 18.4508 12.371C18.0597 12.5615 17.5333 12.5716 17.1673 12.3911C16.8515 12.2357 16.5858 11.9699 16.4353 11.6541C16.2549 11.2831 16.2599 10.7567 16.4504 10.3706C16.6158 10.0347 16.9016 9.76899 17.2576 9.62861C17.6135 9.48823 18.1199 9.5133 18.4658 9.69378Z" fill="white"/>
<path d="M11.7126 12.2404C11.497 12.3507 11.3215 12.6465 11.3215 12.8871C11.3215 13.2581 11.7026 13.6392 12.0686 13.6392C12.4546 13.6392 12.8256 13.2682 12.8256 12.8871C12.8256 12.6365 12.6501 12.3507 12.4245 12.2354C12.1788 12.11 11.9532 12.11 11.7126 12.2404Z" fill="white"/>
<path d="M7.9123 14.8227C7.03493 15.0082 6.23276 15.6349 5.86176 16.412C5.61109 16.9435 5.54591 17.2242 5.55092 17.7757C5.55594 18.3121 5.64618 18.7032 5.88182 19.1494C6.24279 19.8313 6.87951 20.3727 7.6165 20.6134C8.14794 20.7838 8.93507 20.7838 9.46149 20.6134C9.91772 20.463 10.4843 20.092 10.7951 19.741C11.0809 19.4201 11.3967 18.7834 11.4769 18.3623C11.5622 17.9211 11.512 17.154 11.3716 16.7529C11.2263 16.3519 10.8352 15.7603 10.5294 15.4945C10.2135 15.2188 9.57179 14.908 9.14062 14.8177C8.70946 14.7275 8.33845 14.7275 7.9123 14.8227ZM9.20078 16.417C9.4665 16.5474 9.75729 16.8382 9.89767 17.1089C9.95282 17.2092 9.99292 17.4298 10.008 17.6754C10.028 18.0163 10.013 18.1216 9.91772 18.3422C9.76731 18.6932 9.34618 19.0742 9.00526 19.1795C8.44875 19.3449 7.96244 19.2346 7.54631 18.8536C6.65892 18.0414 6.9848 16.6777 8.16298 16.2917C8.38859 16.2165 8.93507 16.2817 9.20078 16.417Z" fill="white"/>
<path d="M14.9864 14.8223C14.2394 14.9827 13.5526 15.444 13.1364 16.0657C12.7955 16.577 12.6702 16.9531 12.6401 17.5948C12.605 18.2265 12.6652 18.5373 12.9259 19.0788C13.3971 20.0564 14.3397 20.6781 15.4577 20.7433C16.8565 20.8235 18.16 19.881 18.516 18.5223C18.6112 18.1513 18.6112 17.3591 18.516 16.9982C18.1049 15.454 16.5306 14.4864 14.9864 14.8223ZM16.2749 16.4166C16.7863 16.6773 17.0971 17.1787 17.0921 17.7502C17.0921 18.2215 16.9518 18.5323 16.6008 18.8532C16.0142 19.3896 15.202 19.3896 14.6154 18.8532C14.2294 18.5022 14.1091 18.2064 14.1392 17.675C14.1542 17.4293 14.1943 17.2087 14.2495 17.1085C14.45 16.7224 14.8511 16.3965 15.2572 16.2913C15.5179 16.2211 16.0092 16.2812 16.2749 16.4166Z" fill="white"/>
</svg>
