<svg width="26" height="27" viewBox="0 0 26 27" fill="none" xmlns="http://www.w3.org/2000/svg">
<path d="M18.172 0.883669C18.227 0.893671 18.3971 0.928684 18.5471 0.958696C19.6225 1.17878 20.6929 2.08412 21.1481 3.15453C21.6183 4.26494 21.5082 5.58544 20.863 6.59082L20.6929 6.85592H22.2885C23.1689 6.85592 24.0042 6.88093 24.1542 6.90594C25.0546 7.076 25.7799 7.80128 25.9499 8.70162C26.0199 9.06175 26.0149 10.7374 25.9449 11.0675C25.8099 11.6927 25.3697 12.283 24.8245 12.5631L24.4994 12.7331V18.5403C24.4994 22.2817 24.4794 24.4426 24.4493 24.6176C24.2793 25.518 23.554 26.2432 22.6537 26.4133C22.2835 26.4833 4.10667 26.4833 3.73653 26.4133C2.83619 26.2432 2.11092 25.518 1.94086 24.6176C1.91084 24.4426 1.89083 22.2817 1.89083 18.5403V12.7331L1.56571 12.5631C1.02051 12.283 0.580341 11.6927 0.44529 11.0675C0.375263 10.7374 0.370262 9.06175 0.440289 8.70162C0.610352 7.80128 1.33563 7.076 2.23597 6.90594C2.38602 6.88093 3.22134 6.85592 4.10167 6.85592H5.69727L5.52721 6.59082C4.88196 5.58544 4.77192 4.26494 5.2421 3.15453C5.69727 2.08412 6.69265 1.2388 7.84308 0.948692C8.24823 0.848656 9.28362 0.858658 9.69378 0.973701C10.294 1.13376 10.7342 1.38886 11.1743 1.82903C11.8246 2.47427 12.2247 3.18454 12.875 4.81515C13.04 5.2203 13.1801 5.55543 13.1951 5.55543C13.2101 5.55543 13.3502 5.2203 13.5152 4.81515C14.1655 3.18454 14.5656 2.47427 15.2159 1.82903C15.651 1.39386 16.0962 1.13376 16.6714 0.978704C16.9615 0.898674 17.9669 0.833649 18.172 0.883669ZM16.8565 2.49428C16.1012 2.78439 15.691 3.42463 14.6907 5.89056L14.3005 6.85592H16.0662C17.0616 6.85592 17.9519 6.83591 18.102 6.8059C19.0323 6.63084 19.7526 5.88556 19.9076 4.9352C20.0977 3.79977 19.2874 2.64933 18.142 2.40424C17.8018 2.33422 17.1616 2.37923 16.8565 2.49428ZM8.28825 2.40424C7.3579 2.57931 6.63762 3.32459 6.48257 4.27495C6.2925 5.43038 7.1128 6.58082 8.28825 6.8059C8.4383 6.83591 9.32864 6.85592 10.324 6.85592H12.0897L11.6995 5.89056C10.8792 3.86979 10.4891 3.14952 9.99889 2.76438C9.54873 2.40924 8.9435 2.27919 8.28825 2.40424ZM16.1962 9.85705V11.3576H20.0477C23.8141 11.3576 23.9091 11.3576 24.0992 11.2576C24.4493 11.0775 24.4994 10.9074 24.4994 9.85705C24.4994 8.81666 24.4493 8.63659 24.1092 8.46153C23.9292 8.36149 23.8091 8.36149 20.0577 8.35649H16.1962V9.85705ZM11.6945 16.6596V24.9628H13.1951H14.6957V16.6596V8.35649H13.1951H11.6945V16.6596ZM2.29099 8.45653C1.94086 8.63659 1.89083 8.80666 1.89083 9.85705C1.89083 10.9074 1.94086 11.0775 2.29099 11.2576C2.48106 11.3576 2.57609 11.3576 6.34251 11.3576H10.194V9.85705V8.35649H6.34251C2.57609 8.35649 2.48106 8.35649 2.29099 8.45653ZM16.1962 18.9105V24.9628H19.2974C22.3085 24.9628 22.4086 24.9578 22.5986 24.8627C22.7287 24.7977 22.8337 24.6927 22.8988 24.5626C22.9988 24.3675 22.9988 24.2825 22.9988 18.6104V12.8582H19.5975H16.1962V18.9105ZM3.3914 18.6104C3.3914 24.2825 3.3914 24.3675 3.49144 24.5626C3.55646 24.6927 3.6615 24.7977 3.79155 24.8627C3.98162 24.9578 4.08166 24.9628 7.0928 24.9628H10.194V18.9105V12.8582H6.79268H3.3914V18.6104Z" fill="white"/>
</svg>
