<svg width="27" height="25" viewBox="0 0 27 25" fill="none" xmlns="http://www.w3.org/2000/svg">
<path opacity="0.97" fill-rule="evenodd" clip-rule="evenodd" d="M26.8281 6.59647C26.8281 6.87591 26.8281 7.15541 26.8281 7.43485C26.1642 10.2204 25.5093 13.015 24.8632 15.8186C24.6129 16.5405 24.1151 16.9859 23.3698 17.1548C18.1125 17.1723 12.8551 17.1898 7.59781 17.2072C7.08001 17.3776 6.86171 17.7356 6.94283 18.2814C7.05035 18.6334 7.28614 18.8343 7.65021 18.884C13.0298 18.9014 18.4094 18.9189 23.789 18.9364C24.3318 19.2021 24.4802 19.6125 24.2344 20.1677C24.1189 20.3008 23.9879 20.4144 23.8414 20.5083C24.3671 21.844 24.0876 22.9793 23.003 23.9142C21.551 24.7798 20.2497 24.5964 19.0993 23.364C18.5088 22.4807 18.3952 21.5375 18.7587 20.5345C17.1515 20.5171 15.5445 20.5345 13.9381 20.5869C14.4595 22.1935 13.9879 23.4074 12.5233 24.2286C11.2295 24.702 10.1203 24.4313 9.19597 23.4164C8.56682 22.5234 8.45327 21.5715 8.85538 20.5607C8.38379 20.5433 7.9122 20.5258 7.44061 20.5083C6.39867 20.3398 5.70873 19.7547 5.37087 18.753C5.06774 17.2064 5.65288 16.1672 7.12622 15.6352C7.2841 15.6089 7.4413 15.5827 7.59781 15.5566C6.43419 11.1118 5.23776 6.67538 4.0085 2.24738C3.96484 2.20371 3.92117 2.16004 3.8775 2.11638C2.77713 2.09892 1.67676 2.08145 0.576386 2.06398C0.309467 1.98019 0.117338 1.81426 0 1.56619C0 1.37406 0 1.18194 0 0.989808C0.117338 0.741743 0.309467 0.575817 0.576386 0.492021C1.72916 0.457087 2.88193 0.457087 4.0347 0.492021C4.78412 0.609038 5.29939 1.0195 5.58046 1.72339C5.91199 2.92728 6.23513 4.13245 6.54984 5.3389C12.8377 5.36112 19.1255 5.38732 25.4134 5.4175C26.1334 5.51779 26.605 5.91078 26.8281 6.59647ZM7.02142 6.96326C8.1742 6.96326 9.32697 6.96326 10.4797 6.96326C10.6326 8.13426 10.7898 9.30449 10.9513 10.474C9.95559 10.4827 8.96002 10.474 7.9646 10.4478C7.62176 9.29479 7.30736 8.13327 7.02142 6.96326ZM12.1041 7.01566C13.2483 6.95755 14.4011 6.95755 15.5624 7.01566C15.5624 8.16843 15.5624 9.3212 15.5624 10.474C14.5668 10.474 13.5713 10.474 12.5757 10.474C12.4468 9.3102 12.2896 8.15742 12.1041 7.01566ZM17.1868 7.01566C18.3222 7.00691 19.4575 7.01566 20.5927 7.04186C20.4164 8.18127 20.2592 9.32534 20.1211 10.474C19.143 10.474 18.1649 10.474 17.1868 10.474C17.1868 9.3212 17.1868 8.16843 17.1868 7.01566ZM22.217 7.01566C23.2126 7.01566 24.2082 7.01566 25.2038 7.01566C24.959 8.15203 24.7057 9.2873 24.444 10.4216C23.5479 10.4909 22.6483 10.4909 21.7455 10.4216C21.9155 9.28856 22.0727 8.15323 22.217 7.01566ZM8.38379 12.0983C9.30952 12.0983 10.2352 12.0983 11.1609 12.0983C11.3181 13.2511 11.4753 14.4039 11.6325 15.5566C10.9162 15.5654 10.2001 15.5566 9.48416 15.5304C9.40918 15.5061 9.34808 15.4624 9.30077 15.3994C8.98685 14.301 8.6812 13.2006 8.38379 12.0983ZM12.7853 12.1507C13.7018 12.0985 14.6276 12.081 15.5624 12.0983C15.5624 13.2511 15.5624 14.4039 15.5624 15.5566C14.7939 15.5566 14.0254 15.5566 13.2569 15.5566C13.1231 14.411 12.9659 13.2757 12.7853 12.1507ZM17.1868 12.0983C18.095 12.0983 19.0033 12.0983 19.9115 12.0983C19.7543 13.2511 19.5971 14.4039 19.4399 15.5566C18.6889 15.5566 17.9378 15.5566 17.1868 15.5566C17.1868 14.4039 17.1868 13.2511 17.1868 12.0983ZM21.5359 12.0983C22.375 12.0809 23.2134 12.0984 24.051 12.1507C23.8035 13.2574 23.5328 14.3578 23.2388 15.4518C23.1995 15.4846 23.1558 15.5108 23.1078 15.5304C22.4443 15.5566 21.7806 15.5654 21.1167 15.5566C21.2478 14.4029 21.3875 13.2502 21.5359 12.0983ZM11.1085 20.5345C12.0953 20.4995 12.5582 20.9711 12.4971 21.9493C12.1046 22.8487 11.4845 23.0496 10.6369 22.5519C10.0559 21.9094 10.0908 21.2981 10.7417 20.7179C10.8688 20.6544 10.9911 20.5933 11.1085 20.5345ZM21.0643 20.5345C22.007 20.5079 22.4699 20.962 22.4528 21.8969C22.2526 22.5603 21.8072 22.8659 21.1167 22.8139C20.2532 22.4944 20 21.9093 20.3569 21.0585C20.5432 20.8103 20.779 20.6356 21.0643 20.5345Z" fill="white"/>
</svg>
