<svg width="26" height="23" viewBox="0 0 26 23" fill="none" xmlns="http://www.w3.org/2000/svg">
<path d="M14.1903 0.733818C13.7388 0.976938 13.6693 1.15556 13.6693 2.07346C13.6693 2.78298 13.6693 2.79786 13.7983 2.92686C13.8976 3.0261 13.9521 3.04594 14.0811 3.02114C14.364 2.9616 14.3888 2.90702 14.4136 2.133L14.4384 1.42845L15.0288 1.41356C15.4158 1.40364 15.6391 1.41853 15.6838 1.45822C15.7383 1.50287 15.7532 1.74103 15.7532 2.6639C15.7532 3.93904 15.788 4.1772 16.0658 4.69817C16.2692 5.09014 16.8299 5.65081 17.2219 5.8592C18.0008 6.26605 19.013 6.26605 19.792 5.8592C20.1939 5.64585 20.7595 5.08518 20.9481 4.70313C21.2458 4.1127 21.2755 3.96385 21.3053 2.64405L21.3351 1.42845L21.9255 1.41356C22.3026 1.40364 22.5358 1.41853 22.5705 1.45326C22.6053 1.48799 22.635 2.11812 22.6499 3.32876L22.6747 5.14968L22.8087 5.4325C23.0667 5.98324 23.6273 6.41986 24.1781 6.48933C24.6842 6.55383 24.6346 6.45956 24.6346 7.37746V8.18621L21.5782 9.65485L18.5218 11.1235L16.036 9.93271C14.6666 9.27281 13.2823 8.61291 12.9648 8.4591L12.3793 8.18621V7.40723C12.3793 6.8416 12.3942 6.61337 12.4438 6.57367C12.4736 6.54887 12.6175 6.51413 12.7514 6.50421C13.1533 6.46948 13.585 6.24124 13.8876 5.91377C14.2498 5.52677 14.3689 5.1993 14.4037 4.54436C14.4235 4.05316 14.4235 4.03827 14.2995 3.91423C14.1357 3.7505 13.9224 3.74554 13.7834 3.89439C13.6991 3.98866 13.6743 4.09285 13.6594 4.47986C13.6346 4.99587 13.5453 5.23899 13.2873 5.48211C13.1235 5.64088 12.8308 5.76989 12.6522 5.76989C12.1908 5.76989 11.7889 6.04774 11.6896 6.43971C11.6499 6.58856 11.6351 7.90339 11.6351 10.6472V14.6314L10.6973 15.192L9.75955 15.7478L9.45689 15.6436C9.184 15.5542 9.03515 15.5443 7.88901 15.5443H6.6238V12.3242V9.09915L7.97832 9.08427L9.32789 9.06938L9.60078 8.93045C9.97787 8.73695 10.3103 8.3946 10.474 8.0324C10.5931 7.77935 10.613 7.66027 10.6179 7.308C10.6179 6.93091 10.603 6.85153 10.4591 6.55879C10.1466 5.92866 9.61071 5.58134 8.88134 5.53669L8.46953 5.50692L8.44968 5.11991C8.41991 4.61382 8.23633 4.23674 7.89398 3.97873C7.62109 3.77034 7.36804 3.686 6.93638 3.6463L6.6238 3.6215V3.16502C6.6238 2.77305 6.60891 2.68374 6.51464 2.54482C6.27152 2.19254 6.21198 2.1727 5.30896 2.1727C4.40594 2.1727 4.3464 2.19254 4.10328 2.54482C4.00901 2.68374 3.99412 2.77305 3.99412 3.16502V3.6215L3.61208 3.65623C2.72394 3.73065 2.21785 4.24666 2.16824 5.10999L2.14343 5.5218H1.84077C1.2801 5.5218 1.01714 5.66569 1.01714 5.97331C1.01714 6.04278 1.06179 6.14201 1.11141 6.18666C1.20072 6.26605 1.46865 6.27597 5.08072 6.26605C7.76497 6.26605 9.02027 6.28094 9.15919 6.31567C9.43705 6.39009 9.75955 6.72252 9.8439 7.02022C9.98283 7.50646 9.75955 8.00759 9.30308 8.23582L9.08477 8.34994H5.32384C1.21064 8.34994 1.36445 8.35987 1.04691 8.06217C0.833556 7.85874 0.719438 7.57593 0.719438 7.21869C0.719438 6.98053 0.699592 6.89122 0.620206 6.81183C0.496164 6.68779 0.267929 6.68283 0.119079 6.80687C0.00992329 6.89618 0 6.94083 0 7.31792C0 7.85378 0.163734 8.23086 0.550743 8.59802C1.02706 9.04953 1.0866 9.06442 2.64456 9.08427L3.99412 9.09915V12.3193V15.5394L2.63959 15.5542C1.29499 15.5691 1.29003 15.5691 1.00721 15.7031C0.654937 15.8668 0.322507 16.2042 0.138926 16.5763C0.0248082 16.8195 0.00496164 16.9237 0 17.3057C0 17.6878 0.0198466 17.792 0.129003 18.0301C0.456471 18.7247 1.09156 19.1117 1.90031 19.1167H2.15832V19.4392C2.15832 20.0297 2.43121 20.5159 2.91249 20.7789C3.12087 20.893 3.2598 20.9277 3.57238 20.9525L3.96932 20.9773L3.99412 21.4834C4.02389 22.0441 4.08343 22.183 4.39602 22.3666C4.54487 22.4559 4.65402 22.4658 5.30896 22.4658C5.9639 22.4658 6.07305 22.4559 6.2219 22.3666C6.53449 22.183 6.59899 22.0441 6.61387 21.4933L6.63372 21.0021L6.93142 21.275C7.09515 21.4288 7.35812 21.6174 7.52185 21.6968C8.1371 22.0093 7.76497 21.9994 15.4903 21.9845L22.5259 21.9697L22.7888 21.8208C23.0816 21.662 23.2403 21.4933 23.409 21.1808C23.5132 20.9873 23.5182 20.9079 23.5331 19.6823L23.548 18.3873L23.8705 18.3576C24.0441 18.3377 24.2872 18.2832 24.4113 18.2286C24.7189 18.0897 25.0563 17.7622 25.2151 17.4347L25.354 17.1569L25.3689 11.8479C25.3788 7.0748 25.3738 6.5191 25.3044 6.33055C25.1704 5.98324 24.8281 5.76989 24.4063 5.76989C24.0888 5.76989 23.7315 5.55157 23.5331 5.23403C23.419 5.05045 23.419 5.0306 23.3942 3.18983L23.3693 1.32922L23.2453 1.1109C23.161 0.962053 23.0468 0.852898 22.903 0.773512C22.7045 0.669317 22.6201 0.659393 21.9751 0.659393C21.216 0.659393 21.0671 0.689163 20.8488 0.897552C20.5958 1.13571 20.5908 1.16052 20.5611 2.52001C20.5362 3.69096 20.5263 3.83485 20.4271 4.08293C20.1989 4.66344 19.6878 5.14968 19.1321 5.32334C18.1398 5.63592 17.1276 5.18937 16.6562 4.23178C16.5223 3.95889 16.5223 3.94896 16.4975 2.64405C16.4677 1.1506 16.4479 1.05633 16.0857 0.818167C15.8921 0.689163 15.8525 0.684202 15.1132 0.669317C14.4781 0.659393 14.3143 0.669317 14.1903 0.733818ZM5.87955 3.26426V3.63638H5.30896H4.73837V3.26426V2.89213H5.30896H5.87955V3.26426ZM7.35316 4.49971C7.58139 4.63863 7.71536 4.91152 7.71536 5.24395V5.5218H5.30896H2.90256V5.24395C2.90256 4.80237 3.07622 4.54436 3.44338 4.42528C3.51284 4.40544 4.38609 4.39055 5.38338 4.39551C7.07034 4.40544 7.20431 4.4104 7.35316 4.49971ZM15.4109 10.4586C17.0333 11.2376 18.4027 11.8876 18.4623 11.9025C18.5317 11.9223 19.5439 11.4609 21.5732 10.4884C23.2304 9.69455 24.5949 9.04457 24.6098 9.04457C24.6246 9.04457 24.6346 10.8109 24.6346 12.9643C24.6346 17.1519 24.6395 17.0775 24.3964 17.3504C24.2724 17.4893 23.9449 17.6282 23.7315 17.6282H23.548L23.5331 15.8271C23.5182 14.0856 23.5132 14.0261 23.409 13.8276C23.2354 13.5001 23.0617 13.3265 22.764 13.1826C22.5259 13.0635 22.4217 13.0437 22.0843 13.0437C21.4244 13.0486 21.2061 13.2024 20.8687 13.9219C20.5114 14.676 19.9359 15.1176 19.142 15.2566C18.1695 15.4203 17.1723 14.8795 16.7307 13.9467C16.3536 13.1578 16.1353 13.0387 15.0834 13.0387C14.2647 13.0437 14.3243 13.0238 13.2277 13.6837C12.7911 13.9417 12.424 14.1551 12.4091 14.1551C12.3942 14.1551 12.3793 13.004 12.3793 11.5998C12.3793 10.1957 12.3991 9.04457 12.424 9.04457C12.4438 9.04457 13.7884 9.67966 15.4109 10.4586ZM5.87955 12.3193V15.5443H5.30896H4.73837V12.3193V9.09419H5.30896H5.87955V12.3193ZM15.6986 13.8127C15.8276 13.8574 15.8921 13.9417 16.0757 14.3039C16.5818 15.3111 17.5146 15.9413 18.6161 16.0206C19.3355 16.0752 20.2237 15.7775 20.7794 15.2913C21.0771 15.0333 21.4293 14.5421 21.5782 14.17C21.7171 13.8276 21.8412 13.7432 22.1438 13.778C22.4415 13.8177 22.6251 13.9268 22.7194 14.1253C22.7888 14.2741 22.7988 14.5768 22.7988 16.7054V19.1167H20.2286H17.6585L17.0184 18.1938C16.6662 17.6828 16.3288 17.2462 16.2643 17.2164C15.9914 17.0924 15.6788 17.3901 15.783 17.6629C15.8128 17.7374 16.0311 18.0797 16.2643 18.4171C16.5024 18.7545 16.6959 19.0522 16.6959 19.0721C16.6959 19.0969 16.5074 19.1167 16.2792 19.1167H15.8624L14.746 17.5091C14.1258 16.626 13.6197 15.8768 13.6098 15.842C13.5949 15.7874 14.0811 15.4451 14.1705 15.4451C14.1853 15.4451 14.3838 15.713 14.612 16.0405C15.0288 16.6359 15.1181 16.7153 15.3563 16.6756C15.5151 16.6557 15.6738 16.4275 15.6391 16.2786C15.6193 16.2191 15.4307 15.9065 15.2074 15.5939C14.9891 15.2863 14.8105 15.0035 14.8105 14.9688C14.8105 14.939 14.8403 14.8844 14.88 14.8547C14.9941 14.7554 15.1082 14.3585 15.1082 14.0459V13.7581H15.3265C15.4406 13.7581 15.6093 13.7829 15.6986 13.8127ZM14.2895 14.3783C14.23 14.4974 13.7537 14.805 12.1511 15.7676C11.0149 16.4473 10.0275 17.013 9.95306 17.0229C9.78932 17.0477 9.48666 16.9038 9.51643 16.8195C9.52636 16.7847 10.6179 16.11 11.9377 15.3161L14.3392 13.8772L14.354 14.0509C14.364 14.1501 14.3392 14.294 14.2895 14.3783ZM13.9373 17.653C14.4731 18.4171 14.9097 19.0572 14.9097 19.077C14.9097 19.1018 14.7262 19.1167 14.4979 19.1167H14.0861L13.2029 17.8465C12.5728 16.9385 12.3346 16.5615 12.3743 16.5218C12.4785 16.4176 12.9003 16.1943 12.935 16.229C12.9549 16.2489 13.4064 16.8889 13.9373 17.653ZM8.78211 16.3332C8.75234 16.3531 8.37029 16.5863 7.93367 16.8492C7.3085 17.2214 7.06538 17.4 6.83218 17.6481C6.50968 17.9954 6.27648 18.4221 6.17725 18.8637C6.11771 19.1266 6.13259 19.856 6.20702 20.0942L6.23679 20.2083H4.79791H3.35903L3.20026 20.0793C2.98195 19.8957 2.90256 19.7071 2.90256 19.3896V19.1167H3.96932C5.09561 19.1167 5.23453 19.0919 5.32881 18.8835C5.40323 18.7148 5.39827 18.6503 5.28911 18.5164L5.19484 18.3973L3.33919 18.3725L1.48849 18.3477L1.26522 18.2236C0.659899 17.8813 0.540819 17.0626 1.03202 16.6012C1.37438 16.2737 1.12133 16.2935 5.16011 16.2886C7.18942 16.2886 8.80692 16.3084 8.78211 16.3332ZM12.3991 17.9954C12.7961 18.566 13.1235 19.0522 13.1235 19.077C13.1235 19.0969 12.935 19.1167 12.7068 19.1167H12.29L11.6599 18.2187C11.3175 17.7274 11.0397 17.3156 11.0496 17.3057C11.0893 17.266 11.6549 16.9385 11.6648 16.9485C11.6698 16.9534 12.0022 17.4248 12.3991 17.9954ZM9.31797 17.6332C9.56109 17.7572 9.96298 17.8068 10.2061 17.7374L10.3847 17.6878L10.861 18.3725C11.124 18.7495 11.3374 19.0721 11.3374 19.0869C11.3374 19.1018 10.345 19.1167 9.12943 19.1167H6.92149V19.0026C6.92149 18.819 7.19438 18.3179 7.40277 18.1145C7.50697 18.0152 7.86917 17.7622 8.2016 17.5588L8.81684 17.1866L8.97065 17.3603C9.05004 17.4546 9.20881 17.5786 9.31797 17.6332ZM22.7888 20.3571L22.7739 20.8533L22.5854 21.0369L22.4018 21.2254H15.3166H8.23633L7.95352 21.0914C7.50697 20.8831 7.08523 20.4117 6.95126 19.9701L6.91653 19.861H14.8601H22.8087L22.7888 20.3571ZM5.87955 21.3495V21.7464H5.30896H4.73837V21.3495V20.9525H5.30896H5.87955V21.3495Z" fill="white"/>
<path d="M17.7032 7.26832C17.4204 7.40725 17.465 7.83395 17.7776 7.92822L17.9364 7.97288V8.60797C17.9364 9.14879 17.9265 9.24306 17.862 9.24306C17.7379 9.24306 17.5394 9.47626 17.5394 9.61518C17.5394 9.68464 17.594 9.79876 17.6635 9.86326C17.7776 9.98234 17.8173 9.9873 18.3333 9.9873C18.8493 9.9873 18.889 9.98234 19.0031 9.86326C19.0726 9.79876 19.1272 9.68464 19.1272 9.61518C19.1272 9.46137 18.9237 9.24306 18.7799 9.24306C18.6856 9.24306 18.6806 9.21825 18.6806 8.4095C18.6806 7.50152 18.6608 7.4271 18.3829 7.28321C18.2192 7.19886 17.862 7.18894 17.7032 7.26832Z" fill="white"/>
</svg>
