<svg width="29" height="25" viewBox="0 0 29 25" fill="none" xmlns="http://www.w3.org/2000/svg">
<path d="M10.1739 0.797171C10.0666 0.838963 9.92527 0.93648 9.86311 1.00613C9.75008 1.12687 9.74443 1.21974 9.71617 2.25992L9.68792 3.38368L7.936 3.4069L6.18408 3.43012L5.845 3.56014C5.14423 3.82947 4.59039 4.30776 4.38129 4.8325C4.33043 4.95787 3.90093 6.76425 3.42056 8.85853C2.92324 11.0178 2.522 12.6756 2.48244 12.6942C2.44288 12.7128 2.28464 12.7406 2.13206 12.7546C1.14307 12.8521 0.204943 13.6461 0.0523565 14.5052C-0.0211111 14.9185 -0.0154598 18.587 0.0580078 18.9631C0.221897 19.8268 1.02439 20.528 2.04728 20.6998L2.39767 20.7602L2.42593 21.9397C2.45418 23.1145 2.45418 23.1192 2.61242 23.3839C2.85543 23.7925 3.21712 24.0897 3.71443 24.2894L4.14394 24.4658H4.90687C5.65285 24.4658 5.68676 24.4612 6.0541 24.3172C6.81138 24.0247 7.28044 23.5046 7.39912 22.8405C7.42737 22.6594 7.45563 22.1254 7.45563 21.6425V20.7741H14.1242H20.7928V21.6425C20.7928 22.1254 20.8211 22.6594 20.8493 22.8405C20.968 23.5046 21.4371 24.0247 22.1944 24.3172C22.5617 24.4612 22.5956 24.4658 23.3359 24.4658C24.0706 24.4658 24.1102 24.4612 24.4662 24.3219C24.8957 24.1547 25.1952 23.955 25.4326 23.6718C25.766 23.2678 25.7886 23.1749 25.8225 21.9165L25.8508 20.7602L26.2012 20.6998C27.2241 20.528 28.0266 19.8268 28.1905 18.9631C28.2696 18.573 28.2696 14.9046 28.1961 14.5052C28.1113 14.0687 27.8118 13.5951 27.4332 13.3025C27.0771 13.0239 26.529 12.7963 26.1164 12.7546C25.9638 12.7406 25.8056 12.7128 25.766 12.6942C25.7265 12.6756 25.3252 11.0178 24.8279 8.85853C24.3475 6.76425 23.918 4.95787 23.8728 4.84178C23.6637 4.32634 23.1607 3.87126 22.4995 3.60658L22.07 3.43012L20.3181 3.4069L18.5605 3.38368L18.5323 2.25992C18.504 1.21974 18.4984 1.12687 18.3854 1.00613C18.1141 0.704298 18.2723 0.713585 14.1242 0.713585C10.6599 0.713585 10.3491 0.718229 10.1739 0.797171ZM16.8369 2.75679V3.4069H14.1242H11.4116V2.75679V2.10668H14.1242H16.8369V2.75679ZM21.7988 4.865C21.9966 4.94859 22.1831 5.11576 22.2509 5.269C22.2848 5.33401 22.3865 5.73801 22.4826 6.17451C22.5843 6.60637 22.6747 6.99644 22.6917 7.03823C22.7199 7.11717 22.2848 7.12181 14.1242 7.12181C5.96367 7.12181 5.52852 7.11717 5.55678 7.03823C5.57373 6.99644 5.66415 6.60637 5.76588 6.17451C5.99758 5.14362 6.02584 5.07861 6.41013 4.88822C6.57402 4.80463 6.87919 4.79999 14.1129 4.79999C20.4707 4.79999 21.6688 4.80928 21.7988 4.865ZM23.0251 8.57063C23.059 8.64957 23.9576 12.5688 23.9576 12.6431C23.9576 12.6803 21.4766 12.6942 14.1242 12.6942C6.2971 12.6942 4.29087 12.6803 4.29087 12.6338C4.29087 12.5595 5.18944 8.64957 5.22335 8.57063C5.2403 8.52884 7.07699 8.51491 14.1242 8.51491C21.1715 8.51491 23.0082 8.52884 23.0251 8.57063ZM26.1051 14.2034C26.2125 14.2591 26.3481 14.3705 26.4159 14.4588C26.5233 14.6167 26.529 14.691 26.529 16.7342C26.529 18.7774 26.5233 18.8517 26.4159 19.0095C26.3481 19.0978 26.2125 19.2092 26.1051 19.2649C25.9073 19.3578 25.8734 19.3578 14.1242 19.3578C2.37506 19.3578 2.34116 19.3578 2.14336 19.2649C2.03598 19.2092 1.90035 19.0978 1.83253 19.0095C1.72516 18.8517 1.71951 18.7634 1.70255 16.8038C1.6856 14.6167 1.6969 14.5006 1.97382 14.2962C2.26204 14.0826 1.79297 14.0919 14.209 14.1012C25.8621 14.1105 25.9073 14.1105 26.1051 14.2034ZM5.76022 21.6657C5.76022 22.6919 5.72067 22.8777 5.4607 23.0031C5.25725 23.1099 4.65256 23.1331 4.44346 23.0449C4.13263 22.9148 4.12133 22.8731 4.12133 21.7818V20.7741H4.94078H5.76022V21.6657ZM24.1271 21.7493C24.1271 22.3483 24.1045 22.7616 24.065 22.8313C23.9689 23.0077 23.7259 23.0959 23.3246 23.0959C22.8669 23.0959 22.6352 22.9891 22.5504 22.7384C22.5165 22.6409 22.4882 22.1579 22.4882 21.6657V20.7741H23.3077H24.1271V21.7493Z" fill="white"/>
<path d="M3.59015 15.94C3.34149 16.0793 3.21716 16.2651 3.21716 16.5205C3.21716 16.7898 3.3528 16.9941 3.62406 17.1288C3.7936 17.2124 3.91228 17.2217 5.05385 17.2217C6.12761 17.2217 6.31976 17.2124 6.478 17.1427C7.04878 16.8827 7.08834 16.2558 6.55146 15.954C6.37062 15.8564 6.31976 15.8518 5.0595 15.8518C3.87837 15.8518 3.73709 15.8611 3.59015 15.94Z" fill="white"/>
<path d="M21.6971 15.954C21.1602 16.2558 21.1998 16.8827 21.7706 17.1427C21.9288 17.2124 22.121 17.2217 23.1947 17.2217C24.3758 17.2217 24.4493 17.217 24.6358 17.1195C24.9071 16.9802 25.0314 16.7898 25.0314 16.5158C25.0314 16.2651 24.9071 16.0747 24.6584 15.94C24.5115 15.8611 24.3702 15.8518 23.1891 15.8518C21.9288 15.8518 21.8779 15.8564 21.6971 15.954Z" fill="white"/>
</svg>
